<mxfile host="app.diagrams.net" agent="Mozilla/5.0 (Macintosh; Intel Mac OS X 10_15_7) AppleWebKit/537.36 (KHTML, like Gecko) Chrome/133.0.0.0 Safari/537.36" version="26.1.0">
  <diagram name="Page-1" id="2YBvvXClWsGukQMizWep">
    <mxGraphModel dx="5736" dy="3140" grid="1" gridSize="10" guides="1" tooltips="1" connect="1" arrows="1" fold="1" page="1" pageScale="10" pageWidth="850" pageHeight="1100" math="0" shadow="0">
      <root>
        <mxCell id="0" />
        <mxCell id="1" parent="0" />
        <mxCell id="w4r3nTZgT-towj5L5SoX-47" value=":База данных" style="shape=umlLifeline;perimeter=lifelinePerimeter;whiteSpace=wrap;html=1;container=1;dropTarget=0;collapsible=0;recursiveResize=0;outlineConnect=0;portConstraint=eastwest;newEdgeStyle={&quot;curved&quot;:0,&quot;rounded&quot;:0};" parent="1" vertex="1">
          <mxGeometry x="2006" y="40" width="100" height="1270" as="geometry" />
        </mxCell>
        <mxCell id="w4r3nTZgT-towj5L5SoX-62" value="" style="html=1;points=[[0,0,0,0,5],[0,1,0,0,-5],[1,0,0,0,5],[1,1,0,0,-5]];perimeter=orthogonalPerimeter;outlineConnect=0;targetShapes=umlLifeline;portConstraint=eastwest;newEdgeStyle={&quot;curved&quot;:0,&quot;rounded&quot;:0};" parent="w4r3nTZgT-towj5L5SoX-47" vertex="1">
          <mxGeometry x="45" y="200" width="10" height="130" as="geometry" />
        </mxCell>
        <mxCell id="w4r3nTZgT-towj5L5SoX-122" value="" style="html=1;points=[[0,0,0,0,5],[0,1,0,0,-5],[1,0,0,0,5],[1,1,0,0,-5]];perimeter=orthogonalPerimeter;outlineConnect=0;targetShapes=umlLifeline;portConstraint=eastwest;newEdgeStyle={&quot;curved&quot;:0,&quot;rounded&quot;:0};" parent="w4r3nTZgT-towj5L5SoX-47" vertex="1">
          <mxGeometry x="45" y="1057" width="10" height="40" as="geometry" />
        </mxCell>
        <mxCell id="w4r3nTZgT-towj5L5SoX-34" value=":Сервер" style="shape=umlLifeline;perimeter=lifelinePerimeter;whiteSpace=wrap;html=1;container=1;dropTarget=0;collapsible=0;recursiveResize=0;outlineConnect=0;portConstraint=eastwest;newEdgeStyle={&quot;curved&quot;:0,&quot;rounded&quot;:0};" parent="1" vertex="1">
          <mxGeometry x="1796" y="40" width="100" height="1260" as="geometry" />
        </mxCell>
        <mxCell id="w4r3nTZgT-towj5L5SoX-119" value="" style="html=1;points=[[0,0,0,0,5],[0,1,0,0,-5],[1,0,0,0,5],[1,1,0,0,-5]];perimeter=orthogonalPerimeter;outlineConnect=0;targetShapes=umlLifeline;portConstraint=eastwest;newEdgeStyle={&quot;curved&quot;:0,&quot;rounded&quot;:0};" parent="w4r3nTZgT-towj5L5SoX-34" vertex="1">
          <mxGeometry x="45" y="1045" width="10" height="70" as="geometry" />
        </mxCell>
        <mxCell id="6lOcQkR09MxCbveaoaYN-1" value="&lt;div&gt;&lt;br&gt;&lt;/div&gt;" style="shape=umlLifeline;perimeter=lifelinePerimeter;whiteSpace=wrap;html=1;container=1;dropTarget=0;collapsible=0;recursiveResize=0;outlineConnect=0;portConstraint=eastwest;newEdgeStyle={&quot;curved&quot;:0,&quot;rounded&quot;:0};participant=umlActor;" parent="1" vertex="1">
          <mxGeometry x="250" y="40" width="20" height="1360" as="geometry" />
        </mxCell>
        <mxCell id="6lOcQkR09MxCbveaoaYN-3" value="" style="html=1;points=[[0,0,0,0,5],[0,1,0,0,-5],[1,0,0,0,5],[1,1,0,0,-5]];perimeter=orthogonalPerimeter;outlineConnect=0;targetShapes=umlLifeline;portConstraint=eastwest;newEdgeStyle={&quot;curved&quot;:0,&quot;rounded&quot;:0};" parent="6lOcQkR09MxCbveaoaYN-1" vertex="1">
          <mxGeometry x="5" y="90" width="10" height="200" as="geometry" />
        </mxCell>
        <mxCell id="6lOcQkR09MxCbveaoaYN-41" value="" style="html=1;points=[[0,0,0,0,5],[0,1,0,0,-5],[1,0,0,0,5],[1,1,0,0,-5]];perimeter=orthogonalPerimeter;outlineConnect=0;targetShapes=umlLifeline;portConstraint=eastwest;newEdgeStyle={&quot;curved&quot;:0,&quot;rounded&quot;:0};" parent="6lOcQkR09MxCbveaoaYN-1" vertex="1">
          <mxGeometry x="5" y="320" width="10" height="200" as="geometry" />
        </mxCell>
        <mxCell id="MOr1BFVqXAcJ6y7MGOdV-34" value="" style="html=1;points=[[0,0,0,0,5],[0,1,0,0,-5],[1,0,0,0,5],[1,1,0,0,-5]];perimeter=orthogonalPerimeter;outlineConnect=0;targetShapes=umlLifeline;portConstraint=eastwest;newEdgeStyle={&quot;curved&quot;:0,&quot;rounded&quot;:0};" parent="6lOcQkR09MxCbveaoaYN-1" vertex="1">
          <mxGeometry x="5" y="560" width="10" height="193" as="geometry" />
        </mxCell>
        <mxCell id="KFshp6aJ-BWy2UAYk6_I-58" value="" style="html=1;points=[[0,0,0,0,5],[0,1,0,0,-5],[1,0,0,0,5],[1,1,0,0,-5]];perimeter=orthogonalPerimeter;outlineConnect=0;targetShapes=umlLifeline;portConstraint=eastwest;newEdgeStyle={&quot;curved&quot;:0,&quot;rounded&quot;:0};" parent="6lOcQkR09MxCbveaoaYN-1" vertex="1">
          <mxGeometry x="5" y="780" width="10" height="330" as="geometry" />
        </mxCell>
        <mxCell id="w4r3nTZgT-towj5L5SoX-1" value="" style="html=1;points=[[0,0,0,0,5],[0,1,0,0,-5],[1,0,0,0,5],[1,1,0,0,-5]];perimeter=orthogonalPerimeter;outlineConnect=0;targetShapes=umlLifeline;portConstraint=eastwest;newEdgeStyle={&quot;curved&quot;:0,&quot;rounded&quot;:0};" parent="6lOcQkR09MxCbveaoaYN-1" vertex="1">
          <mxGeometry x="5" y="1160" width="10" height="170" as="geometry" />
        </mxCell>
        <mxCell id="6lOcQkR09MxCbveaoaYN-2" value="&lt;font style=&quot;font-size: 8px;&quot;&gt;Пользователь&lt;/font&gt;" style="text;html=1;align=center;verticalAlign=middle;resizable=0;points=[];autosize=1;strokeColor=none;fillColor=none;" parent="1" vertex="1">
          <mxGeometry x="220" y="80" width="80" height="30" as="geometry" />
        </mxCell>
        <mxCell id="6lOcQkR09MxCbveaoaYN-4" value=":Клиент" style="shape=umlLifeline;perimeter=lifelinePerimeter;whiteSpace=wrap;html=1;container=0;dropTarget=0;collapsible=0;recursiveResize=0;outlineConnect=0;portConstraint=eastwest;newEdgeStyle={&quot;curved&quot;:0,&quot;rounded&quot;:0};" parent="1" vertex="1">
          <mxGeometry x="425" y="40" width="100" height="1360" as="geometry" />
        </mxCell>
        <mxCell id="6lOcQkR09MxCbveaoaYN-8" value=":Сервер" style="shape=umlLifeline;perimeter=lifelinePerimeter;whiteSpace=wrap;html=1;container=1;dropTarget=0;collapsible=0;recursiveResize=0;outlineConnect=0;portConstraint=eastwest;newEdgeStyle={&quot;curved&quot;:0,&quot;rounded&quot;:0};" parent="1" vertex="1">
          <mxGeometry x="640" y="40" width="100" height="1360" as="geometry" />
        </mxCell>
        <mxCell id="6lOcQkR09MxCbveaoaYN-9" value="" style="html=1;points=[[0,0,0,0,5],[0,1,0,0,-5],[1,0,0,0,5],[1,1,0,0,-5]];perimeter=orthogonalPerimeter;outlineConnect=0;targetShapes=umlLifeline;portConstraint=eastwest;newEdgeStyle={&quot;curved&quot;:0,&quot;rounded&quot;:0};" parent="6lOcQkR09MxCbveaoaYN-8" vertex="1">
          <mxGeometry x="45" y="90" width="10" height="100" as="geometry" />
        </mxCell>
        <mxCell id="MOr1BFVqXAcJ6y7MGOdV-6" value="" style="html=1;points=[[0,0,0,0,5],[0,1,0,0,-5],[1,0,0,0,5],[1,1,0,0,-5]];perimeter=orthogonalPerimeter;outlineConnect=0;targetShapes=umlLifeline;portConstraint=eastwest;newEdgeStyle={&quot;curved&quot;:0,&quot;rounded&quot;:0};" parent="6lOcQkR09MxCbveaoaYN-8" vertex="1">
          <mxGeometry x="45" y="430" width="10" height="80" as="geometry" />
        </mxCell>
        <mxCell id="MOr1BFVqXAcJ6y7MGOdV-42" value="" style="html=1;points=[[0,0,0,0,5],[0,1,0,0,-5],[1,0,0,0,5],[1,1,0,0,-5]];perimeter=orthogonalPerimeter;outlineConnect=0;targetShapes=umlLifeline;portConstraint=eastwest;newEdgeStyle={&quot;curved&quot;:0,&quot;rounded&quot;:0};" parent="6lOcQkR09MxCbveaoaYN-8" vertex="1">
          <mxGeometry x="45" y="640" width="10" height="100" as="geometry" />
        </mxCell>
        <mxCell id="MOr1BFVqXAcJ6y7MGOdV-48" value="&lt;font style=&quot;font-size: 8px;&quot;&gt;Валидация полученных данных&lt;/font&gt;" style="html=1;align=left;spacingLeft=2;endArrow=block;rounded=0;edgeStyle=orthogonalEdgeStyle;curved=0;rounded=0;" parent="6lOcQkR09MxCbveaoaYN-8" edge="1">
          <mxGeometry x="0.0043" relative="1" as="geometry">
            <mxPoint x="54.99999999999977" y="689.9744827586208" as="sourcePoint" />
            <Array as="points">
              <mxPoint x="90" y="689.94" />
              <mxPoint x="90" y="719.94" />
            </Array>
            <mxPoint x="54.99999999999977" y="719.9744827586208" as="targetPoint" />
            <mxPoint as="offset" />
          </mxGeometry>
        </mxCell>
        <mxCell id="KFshp6aJ-BWy2UAYk6_I-61" value="" style="html=1;points=[[0,0,0,0,5],[0,1,0,0,-5],[1,0,0,0,5],[1,1,0,0,-5]];perimeter=orthogonalPerimeter;outlineConnect=0;targetShapes=umlLifeline;portConstraint=eastwest;newEdgeStyle={&quot;curved&quot;:0,&quot;rounded&quot;:0};" parent="6lOcQkR09MxCbveaoaYN-8" vertex="1">
          <mxGeometry x="45" y="810" width="10" height="300" as="geometry" />
        </mxCell>
        <mxCell id="tupzbdJy7pBthnfggFE2-3" value="&lt;span style=&quot;font-size: 8px;&quot;&gt;Проверка зарегистрирован ли&lt;/span&gt;&lt;div&gt;&lt;span style=&quot;font-size: 8px;&quot;&gt;пользователь в событии или&amp;nbsp;&lt;/span&gt;&lt;/div&gt;&lt;div&gt;&lt;span style=&quot;font-size: 8px;&quot;&gt;корректности токена приглашения&lt;/span&gt;&lt;/div&gt;" style="html=1;align=left;spacingLeft=2;endArrow=block;rounded=0;edgeStyle=orthogonalEdgeStyle;curved=0;rounded=0;" parent="6lOcQkR09MxCbveaoaYN-8" source="KFshp6aJ-BWy2UAYk6_I-61" target="KFshp6aJ-BWy2UAYk6_I-61" edge="1">
          <mxGeometry relative="1" as="geometry">
            <mxPoint x="60" y="940" as="sourcePoint" />
            <Array as="points">
              <mxPoint x="80" y="940" />
              <mxPoint x="80" y="970" />
            </Array>
            <mxPoint x="65" y="970" as="targetPoint" />
          </mxGeometry>
        </mxCell>
        <mxCell id="w4r3nTZgT-towj5L5SoX-4" value="" style="html=1;points=[[0,0,0,0,5],[0,1,0,0,-5],[1,0,0,0,5],[1,1,0,0,-5]];perimeter=orthogonalPerimeter;outlineConnect=0;targetShapes=umlLifeline;portConstraint=eastwest;newEdgeStyle={&quot;curved&quot;:0,&quot;rounded&quot;:0};" parent="6lOcQkR09MxCbveaoaYN-8" vertex="1">
          <mxGeometry x="45" y="1210" width="10" height="90" as="geometry" />
        </mxCell>
        <mxCell id="w4r3nTZgT-towj5L5SoX-12" value="&lt;font style=&quot;font-size: 8px;&quot;&gt;Генерация токена приглашения&lt;/font&gt;" style="html=1;align=left;spacingLeft=2;endArrow=block;rounded=0;edgeStyle=orthogonalEdgeStyle;curved=0;rounded=0;" parent="6lOcQkR09MxCbveaoaYN-8" source="w4r3nTZgT-towj5L5SoX-4" target="w4r3nTZgT-towj5L5SoX-4" edge="1">
          <mxGeometry relative="1" as="geometry">
            <mxPoint x="65" y="1230" as="sourcePoint" />
            <Array as="points">
              <mxPoint x="80" y="1230" />
              <mxPoint x="80" y="1260" />
            </Array>
            <mxPoint x="70" y="1260" as="targetPoint" />
          </mxGeometry>
        </mxCell>
        <mxCell id="6lOcQkR09MxCbveaoaYN-12" value="&lt;font style=&quot;font-size: 8px;&quot;&gt;Вход на сайт&lt;/font&gt;" style="ellipse;whiteSpace=wrap;html=1;" parent="1" vertex="1">
          <mxGeometry x="70" y="120" width="120" height="60" as="geometry" />
        </mxCell>
        <mxCell id="6lOcQkR09MxCbveaoaYN-14" value="&lt;font style=&quot;font-size: 8px;&quot;&gt;Alt&lt;/font&gt;" style="shape=umlFrame;whiteSpace=wrap;html=1;pointerEvents=0;recursiveResize=0;container=1;collapsible=0;width=30;height=15;" parent="1" vertex="1">
          <mxGeometry x="220" y="230" width="280" height="90" as="geometry" />
        </mxCell>
        <mxCell id="6lOcQkR09MxCbveaoaYN-15" value="&lt;font style=&quot;font-size: 8px;&quot;&gt;[Пользователь авторизован]&lt;/font&gt;" style="text;html=1;" parent="6lOcQkR09MxCbveaoaYN-14" vertex="1">
          <mxGeometry width="100" height="20" relative="1" as="geometry">
            <mxPoint x="100" y="-10" as="offset" />
          </mxGeometry>
        </mxCell>
        <mxCell id="6lOcQkR09MxCbveaoaYN-16" value="" style="line;strokeWidth=1;dashed=1;labelPosition=center;verticalLabelPosition=bottom;align=left;verticalAlign=top;spacingLeft=20;spacingTop=15;html=1;whiteSpace=wrap;" parent="6lOcQkR09MxCbveaoaYN-14" vertex="1">
          <mxGeometry y="40" width="280" height="10" as="geometry" />
        </mxCell>
        <mxCell id="6lOcQkR09MxCbveaoaYN-22" value="&lt;font style=&quot;font-size: 8px;&quot;&gt;[Пользователь не авторизован]&lt;/font&gt;" style="text;html=1;" parent="6lOcQkR09MxCbveaoaYN-14" vertex="1">
          <mxGeometry x="100" y="40" width="100" height="20" as="geometry" />
        </mxCell>
        <mxCell id="6lOcQkR09MxCbveaoaYN-27" value="&lt;span style=&quot;font-size: 8px;&quot;&gt;Отображение главной страницы&lt;/span&gt;" style="html=1;verticalAlign=bottom;endArrow=open;dashed=1;endSize=8;curved=0;rounded=0;" parent="6lOcQkR09MxCbveaoaYN-14" edge="1">
          <mxGeometry relative="1" as="geometry">
            <mxPoint x="250.5" y="30" as="sourcePoint" />
            <mxPoint x="45.5" y="30" as="targetPoint" />
            <mxPoint as="offset" />
          </mxGeometry>
        </mxCell>
        <mxCell id="6lOcQkR09MxCbveaoaYN-30" value="&lt;span style=&quot;font-size: 8px;&quot;&gt;Отображение приветственной страницы&lt;/span&gt;" style="html=1;verticalAlign=bottom;endArrow=open;dashed=1;endSize=8;curved=0;rounded=0;" parent="6lOcQkR09MxCbveaoaYN-14" edge="1">
          <mxGeometry relative="1" as="geometry">
            <mxPoint x="250.5" y="79.99999999999999" as="sourcePoint" />
            <mxPoint x="45.5" y="80" as="targetPoint" />
            <mxPoint as="offset" />
          </mxGeometry>
        </mxCell>
        <mxCell id="6lOcQkR09MxCbveaoaYN-20" value="&lt;font style=&quot;font-size: 8px;&quot;&gt;Открытие сайта&lt;/font&gt;" style="html=1;verticalAlign=bottom;endArrow=block;curved=0;rounded=0;entryX=0;entryY=0;entryDx=0;entryDy=5;entryPerimeter=0;" parent="1" source="6lOcQkR09MxCbveaoaYN-3" target="6lOcQkR09MxCbveaoaYN-5" edge="1">
          <mxGeometry x="-0.0014" width="80" relative="1" as="geometry">
            <mxPoint x="400" y="110" as="sourcePoint" />
            <mxPoint x="480" y="110" as="targetPoint" />
            <mxPoint as="offset" />
          </mxGeometry>
        </mxCell>
        <mxCell id="6lOcQkR09MxCbveaoaYN-21" value="&lt;span style=&quot;font-size: 8px;&quot;&gt;Запрос на получение кода приложения&lt;/span&gt;" style="html=1;verticalAlign=bottom;endArrow=block;curved=0;rounded=0;" parent="1" source="6lOcQkR09MxCbveaoaYN-5" target="6lOcQkR09MxCbveaoaYN-9" edge="1">
          <mxGeometry x="0.0035" width="80" relative="1" as="geometry">
            <mxPoint x="380" y="159.68" as="sourcePoint" />
            <mxPoint x="669.5" y="159.68" as="targetPoint" />
            <Array as="points">
              <mxPoint x="590" y="140" />
            </Array>
            <mxPoint as="offset" />
          </mxGeometry>
        </mxCell>
        <mxCell id="6lOcQkR09MxCbveaoaYN-23" value="&lt;font style=&quot;font-size: 8px;&quot;&gt;Возвращение кода приложения&lt;/font&gt;" style="html=1;verticalAlign=bottom;endArrow=open;dashed=1;endSize=8;curved=0;rounded=0;" parent="1" edge="1">
          <mxGeometry x="-0.0022" relative="1" as="geometry">
            <mxPoint x="685" y="160" as="sourcePoint" />
            <mxPoint x="480" y="160" as="targetPoint" />
            <mxPoint as="offset" />
          </mxGeometry>
        </mxCell>
        <mxCell id="6lOcQkR09MxCbveaoaYN-25" value="&lt;font style=&quot;font-size: 8px;&quot;&gt;Запрос для проверки авторизованности&lt;/font&gt;" style="html=1;verticalAlign=bottom;endArrow=block;curved=0;rounded=0;" parent="1" edge="1">
          <mxGeometry width="80" relative="1" as="geometry">
            <mxPoint x="480" y="180" as="sourcePoint" />
            <mxPoint x="685" y="180" as="targetPoint" />
          </mxGeometry>
        </mxCell>
        <mxCell id="6lOcQkR09MxCbveaoaYN-26" value="&lt;font style=&quot;font-size: 8px;&quot;&gt;Ответ на запрос&lt;/font&gt;" style="html=1;verticalAlign=bottom;endArrow=open;dashed=1;endSize=8;curved=0;rounded=0;" parent="1" edge="1">
          <mxGeometry relative="1" as="geometry">
            <mxPoint x="685" y="220" as="sourcePoint" />
            <mxPoint x="480" y="220" as="targetPoint" />
          </mxGeometry>
        </mxCell>
        <mxCell id="6lOcQkR09MxCbveaoaYN-33" value="" style="line;strokeWidth=1;fillColor=none;align=left;verticalAlign=middle;spacingTop=-1;spacingLeft=3;spacingRight=3;rotatable=0;labelPosition=right;points=[];portConstraint=eastwest;strokeColor=inherit;" parent="1" vertex="1">
          <mxGeometry x="80" y="340" width="880" height="8" as="geometry" />
        </mxCell>
        <mxCell id="6lOcQkR09MxCbveaoaYN-40" value="&lt;font size=&quot;1&quot;&gt;Регистрация&lt;/font&gt;" style="ellipse;whiteSpace=wrap;html=1;" parent="1" vertex="1">
          <mxGeometry x="70" y="360" width="120" height="60" as="geometry" />
        </mxCell>
        <mxCell id="6lOcQkR09MxCbveaoaYN-42" value=":База данных" style="shape=umlLifeline;perimeter=lifelinePerimeter;whiteSpace=wrap;html=1;container=1;dropTarget=0;collapsible=0;recursiveResize=0;outlineConnect=0;portConstraint=eastwest;newEdgeStyle={&quot;curved&quot;:0,&quot;rounded&quot;:0};" parent="1" vertex="1">
          <mxGeometry x="850" y="40" width="100" height="1360" as="geometry" />
        </mxCell>
        <mxCell id="6lOcQkR09MxCbveaoaYN-43" value="" style="html=1;points=[[0,0,0,0,5],[0,1,0,0,-5],[1,0,0,0,5],[1,1,0,0,-5]];perimeter=orthogonalPerimeter;outlineConnect=0;targetShapes=umlLifeline;portConstraint=eastwest;newEdgeStyle={&quot;curved&quot;:0,&quot;rounded&quot;:0};" parent="6lOcQkR09MxCbveaoaYN-42" vertex="1">
          <mxGeometry x="45" y="140" width="10" height="40" as="geometry" />
        </mxCell>
        <mxCell id="MOr1BFVqXAcJ6y7MGOdV-27" value="" style="html=1;points=[[0,0,0,0,5],[0,1,0,0,-5],[1,0,0,0,5],[1,1,0,0,-5]];perimeter=orthogonalPerimeter;outlineConnect=0;targetShapes=umlLifeline;portConstraint=eastwest;newEdgeStyle={&quot;curved&quot;:0,&quot;rounded&quot;:0};" parent="6lOcQkR09MxCbveaoaYN-42" vertex="1">
          <mxGeometry x="45" y="430" width="10" height="50" as="geometry" />
        </mxCell>
        <mxCell id="MOr1BFVqXAcJ6y7MGOdV-43" value="" style="html=1;points=[[0,0,0,0,5],[0,1,0,0,-5],[1,0,0,0,5],[1,1,0,0,-5]];perimeter=orthogonalPerimeter;outlineConnect=0;targetShapes=umlLifeline;portConstraint=eastwest;newEdgeStyle={&quot;curved&quot;:0,&quot;rounded&quot;:0};" parent="6lOcQkR09MxCbveaoaYN-42" vertex="1">
          <mxGeometry x="45" y="650" width="10" height="40" as="geometry" />
        </mxCell>
        <mxCell id="KFshp6aJ-BWy2UAYk6_I-72" value="" style="html=1;points=[[0,0,0,0,5],[0,1,0,0,-5],[1,0,0,0,5],[1,1,0,0,-5]];perimeter=orthogonalPerimeter;outlineConnect=0;targetShapes=umlLifeline;portConstraint=eastwest;newEdgeStyle={&quot;curved&quot;:0,&quot;rounded&quot;:0};" parent="6lOcQkR09MxCbveaoaYN-42" vertex="1">
          <mxGeometry x="45" y="820" width="10" height="40" as="geometry" />
        </mxCell>
        <mxCell id="w4r3nTZgT-towj5L5SoX-9" value="" style="html=1;points=[[0,0,0,0,5],[0,1,0,0,-5],[1,0,0,0,5],[1,1,0,0,-5]];perimeter=orthogonalPerimeter;outlineConnect=0;targetShapes=umlLifeline;portConstraint=eastwest;newEdgeStyle={&quot;curved&quot;:0,&quot;rounded&quot;:0};" parent="6lOcQkR09MxCbveaoaYN-42" vertex="1">
          <mxGeometry x="45" y="1270" width="10" height="20" as="geometry" />
        </mxCell>
        <mxCell id="6lOcQkR09MxCbveaoaYN-44" value="&lt;font style=&quot;font-size: 8px;&quot;&gt;Запрос на получение данных о сессии&lt;/font&gt;" style="html=1;verticalAlign=bottom;endArrow=block;curved=0;rounded=0;entryX=0;entryY=0;entryDx=0;entryDy=5;" parent="1" edge="1">
          <mxGeometry relative="1" as="geometry">
            <mxPoint x="695" y="190" as="sourcePoint" />
            <mxPoint as="offset" />
            <mxPoint x="895" y="190" as="targetPoint" />
          </mxGeometry>
        </mxCell>
        <mxCell id="6lOcQkR09MxCbveaoaYN-45" value="&lt;font style=&quot;font-size: 8px;&quot;&gt;Возвращенние данных о сессии&lt;/font&gt;" style="html=1;verticalAlign=bottom;endArrow=open;dashed=1;endSize=8;curved=0;rounded=0;" parent="1" edge="1">
          <mxGeometry relative="1" as="geometry">
            <mxPoint x="695" y="210" as="targetPoint" />
            <mxPoint x="895" y="210" as="sourcePoint" />
          </mxGeometry>
        </mxCell>
        <mxCell id="MOr1BFVqXAcJ6y7MGOdV-2" value="&lt;span style=&quot;font-size: 8px;&quot;&gt;Нажатие кнопки &quot;Далее&quot; на странице приветствия&lt;/span&gt;" style="html=1;verticalAlign=bottom;endArrow=block;curved=0;rounded=0;entryX=0;entryY=0;entryDx=0;entryDy=5;exitX=1;exitY=0;exitDx=0;exitDy=5;exitPerimeter=0;" parent="1" edge="1">
          <mxGeometry x="-0.0039" relative="1" as="geometry">
            <mxPoint x="265" y="370" as="sourcePoint" />
            <mxPoint x="470" y="370.00000000000114" as="targetPoint" />
            <mxPoint as="offset" />
          </mxGeometry>
        </mxCell>
        <mxCell id="MOr1BFVqXAcJ6y7MGOdV-4" value="&lt;font style=&quot;font-size: 8px;&quot;&gt;Ввод данных пользователя&lt;/font&gt;" style="html=1;verticalAlign=bottom;endArrow=block;curved=0;rounded=0;" parent="1" edge="1">
          <mxGeometry width="80" relative="1" as="geometry">
            <mxPoint x="265" y="410" as="sourcePoint" />
            <mxPoint x="470" y="410" as="targetPoint" />
          </mxGeometry>
        </mxCell>
        <mxCell id="MOr1BFVqXAcJ6y7MGOdV-5" value="&lt;font style=&quot;font-size: 8px;&quot;&gt;&lt;font style=&quot;&quot;&gt;Нажатие кнопки &quot;&lt;/font&gt;&lt;span style=&quot;&quot;&gt;&lt;/span&gt;&lt;span style=&quot;&quot;&gt;&lt;/span&gt;&lt;span style=&quot;white-space: pre-wrap;&quot;&gt;Зарегистрироваться&quot;&lt;/span&gt;&lt;/font&gt;" style="html=1;verticalAlign=bottom;endArrow=block;curved=0;rounded=0;" parent="1" edge="1">
          <mxGeometry width="80" relative="1" as="geometry">
            <mxPoint x="265" y="470" as="sourcePoint" />
            <mxPoint x="470" y="470" as="targetPoint" />
          </mxGeometry>
        </mxCell>
        <mxCell id="MOr1BFVqXAcJ6y7MGOdV-7" value="&lt;font style=&quot;font-size: 8px;&quot;&gt;Запрос на добавление пользователя&lt;/font&gt;" style="html=1;verticalAlign=bottom;endArrow=block;curved=0;rounded=0;entryX=0;entryY=0;entryDx=0;entryDy=5;" parent="1" edge="1">
          <mxGeometry relative="1" as="geometry">
            <mxPoint x="480" y="480" as="sourcePoint" />
            <mxPoint x="685" y="480" as="targetPoint" />
          </mxGeometry>
        </mxCell>
        <mxCell id="MOr1BFVqXAcJ6y7MGOdV-3" value="&lt;font style=&quot;font-size: 8px;&quot;&gt;Отображение страницы регистрации&lt;/font&gt;" style="html=1;verticalAlign=bottom;endArrow=open;dashed=1;endSize=8;curved=0;rounded=0;exitX=0;exitY=1;exitDx=0;exitDy=-5;" parent="1" edge="1">
          <mxGeometry relative="1" as="geometry">
            <mxPoint x="265" y="390" as="targetPoint" />
            <mxPoint x="469.9999999999998" y="390" as="sourcePoint" />
          </mxGeometry>
        </mxCell>
        <mxCell id="MOr1BFVqXAcJ6y7MGOdV-8" value="&lt;span style=&quot;font-size: 8px;&quot;&gt;Ответ с сервера&lt;/span&gt;" style="html=1;verticalAlign=bottom;endArrow=open;dashed=1;endSize=8;curved=0;rounded=0;" parent="1" edge="1">
          <mxGeometry x="0.0005" relative="1" as="geometry">
            <mxPoint x="480" y="540" as="targetPoint" />
            <mxPoint x="685" y="540" as="sourcePoint" />
            <mxPoint as="offset" />
          </mxGeometry>
        </mxCell>
        <mxCell id="MOr1BFVqXAcJ6y7MGOdV-28" value="&lt;span style=&quot;font-size: 8px;&quot;&gt;Запрос на добавление данных в таблицу&lt;/span&gt;" style="html=1;verticalAlign=bottom;endArrow=block;curved=0;rounded=0;" parent="1" edge="1">
          <mxGeometry relative="1" as="geometry">
            <mxPoint x="695" y="489.79" as="sourcePoint" />
            <mxPoint x="895" y="489.79" as="targetPoint" />
            <Array as="points">
              <mxPoint x="880" y="489.79" />
            </Array>
          </mxGeometry>
        </mxCell>
        <mxCell id="MOr1BFVqXAcJ6y7MGOdV-29" value="&lt;font style=&quot;font-size: 8px;&quot;&gt;Ответ на запрос&lt;/font&gt;" style="html=1;verticalAlign=bottom;endArrow=open;dashed=1;endSize=8;curved=0;rounded=0;" parent="1" edge="1">
          <mxGeometry relative="1" as="geometry">
            <mxPoint x="695" y="509.9999999999999" as="targetPoint" />
            <mxPoint x="895" y="509.9999999999999" as="sourcePoint" />
          </mxGeometry>
        </mxCell>
        <mxCell id="MOr1BFVqXAcJ6y7MGOdV-30" value="" style="line;strokeWidth=1;fillColor=none;align=left;verticalAlign=middle;spacingTop=-1;spacingLeft=3;spacingRight=3;rotatable=0;labelPosition=right;points=[];portConstraint=eastwest;strokeColor=inherit;" parent="1" vertex="1">
          <mxGeometry x="70" y="575.5" width="890" height="10" as="geometry" />
        </mxCell>
        <mxCell id="MOr1BFVqXAcJ6y7MGOdV-31" value="&lt;font size=&quot;1&quot;&gt;Авторизация&lt;/font&gt;" style="ellipse;whiteSpace=wrap;html=1;" parent="1" vertex="1">
          <mxGeometry x="70" y="600" width="120" height="60" as="geometry" />
        </mxCell>
        <mxCell id="MOr1BFVqXAcJ6y7MGOdV-32" value="&lt;font style=&quot;font-size: 8px;&quot;&gt;Нажатие кнопки &quot;&lt;span style=&quot;&quot;&gt;&lt;/span&gt;&lt;span style=&quot;&quot;&gt;&lt;/span&gt;&lt;span style=&quot;white-space: pre-wrap;&quot;&gt;Уже знакомы? Войти&lt;/span&gt;&quot; на странице приветствия&lt;/font&gt;" style="html=1;verticalAlign=bottom;endArrow=block;curved=0;rounded=0;" parent="1" edge="1">
          <mxGeometry x="-0.0034" relative="1" as="geometry">
            <mxPoint x="265" y="620" as="sourcePoint" />
            <mxPoint x="470" y="620" as="targetPoint" />
            <mxPoint as="offset" />
          </mxGeometry>
        </mxCell>
        <mxCell id="MOr1BFVqXAcJ6y7MGOdV-36" value="&lt;font style=&quot;font-size: 8px;&quot;&gt;Отображение страницы авторизации&lt;/font&gt;" style="html=1;verticalAlign=bottom;endArrow=open;dashed=1;endSize=8;curved=0;rounded=0;" parent="1" edge="1">
          <mxGeometry relative="1" as="geometry">
            <mxPoint x="474.5" y="640" as="sourcePoint" />
            <mxPoint x="265" y="640" as="targetPoint" />
            <mxPoint as="offset" />
          </mxGeometry>
        </mxCell>
        <mxCell id="MOr1BFVqXAcJ6y7MGOdV-37" value="&lt;span style=&quot;font-size: 8px;&quot;&gt;Ввод данных пользователя&lt;/span&gt;" style="html=1;verticalAlign=bottom;endArrow=block;curved=0;rounded=0;" parent="1" edge="1">
          <mxGeometry width="80" relative="1" as="geometry">
            <mxPoint x="265" y="660" as="sourcePoint" />
            <mxPoint x="470" y="660" as="targetPoint" />
          </mxGeometry>
        </mxCell>
        <mxCell id="MOr1BFVqXAcJ6y7MGOdV-41" value="&lt;span style=&quot;font-size: 8px;&quot;&gt;Нажатие кнопки &quot;Войти&quot;&lt;/span&gt;" style="html=1;verticalAlign=bottom;endArrow=block;curved=0;rounded=0;" parent="1" target="MOr1BFVqXAcJ6y7MGOdV-35" edge="1">
          <mxGeometry width="80" relative="1" as="geometry">
            <mxPoint x="265" y="680" as="sourcePoint" />
            <mxPoint x="460" y="680" as="targetPoint" />
          </mxGeometry>
        </mxCell>
        <mxCell id="MOr1BFVqXAcJ6y7MGOdV-44" value="&lt;font style=&quot;font-size: 8px;&quot;&gt;Запрос для логина&lt;/font&gt;" style="html=1;verticalAlign=bottom;endArrow=block;curved=0;rounded=0;" parent="1" edge="1">
          <mxGeometry width="80" relative="1" as="geometry">
            <mxPoint x="480" y="690.0000000000002" as="sourcePoint" />
            <mxPoint x="685" y="690.0000000000002" as="targetPoint" />
            <mxPoint as="offset" />
          </mxGeometry>
        </mxCell>
        <mxCell id="MOr1BFVqXAcJ6y7MGOdV-46" value="&lt;font style=&quot;font-size: 8px;&quot;&gt;Запрос на получение данных пользователя&lt;/font&gt;" style="html=1;verticalAlign=bottom;endArrow=block;curved=0;rounded=0;" parent="1" edge="1">
          <mxGeometry width="80" relative="1" as="geometry">
            <mxPoint x="695" y="699.9999999999998" as="sourcePoint" />
            <mxPoint x="895" y="699.9999999999998" as="targetPoint" />
            <mxPoint as="offset" />
          </mxGeometry>
        </mxCell>
        <mxCell id="MOr1BFVqXAcJ6y7MGOdV-49" value="&lt;span style=&quot;font-size: 8px;&quot;&gt;Ответ с сервера&lt;/span&gt;" style="html=1;verticalAlign=bottom;endArrow=open;dashed=1;endSize=8;curved=0;rounded=0;" parent="1" edge="1">
          <mxGeometry relative="1" as="geometry">
            <mxPoint x="685" y="770" as="sourcePoint" />
            <mxPoint x="480" y="770" as="targetPoint" />
          </mxGeometry>
        </mxCell>
        <mxCell id="MOr1BFVqXAcJ6y7MGOdV-56" value="&lt;font style=&quot;font-size: 8px;&quot;&gt;Ответ на запрос&lt;/font&gt;" style="html=1;verticalAlign=bottom;endArrow=open;dashed=1;endSize=8;curved=0;rounded=0;" parent="1" edge="1">
          <mxGeometry relative="1" as="geometry">
            <mxPoint x="895" y="720" as="sourcePoint" />
            <mxPoint x="695" y="720" as="targetPoint" />
          </mxGeometry>
        </mxCell>
        <mxCell id="MOr1BFVqXAcJ6y7MGOdV-15" value="&lt;font style=&quot;font-size: 8px;&quot;&gt;Валидация введенных данных&lt;/font&gt;" style="html=1;align=left;spacingLeft=2;endArrow=block;rounded=0;edgeStyle=orthogonalEdgeStyle;curved=0;rounded=0;" parent="1" edge="1">
          <mxGeometry relative="1" as="geometry">
            <mxPoint x="265" y="420" as="sourcePoint" />
            <Array as="points">
              <mxPoint x="300" y="420" />
              <mxPoint x="300" y="450" />
            </Array>
            <mxPoint x="265" y="450" as="targetPoint" />
          </mxGeometry>
        </mxCell>
        <mxCell id="KFshp6aJ-BWy2UAYk6_I-56" value="&lt;font size=&quot;1&quot;&gt;Открытие страницы события&lt;/font&gt;" style="ellipse;whiteSpace=wrap;html=1;" parent="1" vertex="1">
          <mxGeometry x="80" y="830" width="120" height="60" as="geometry" />
        </mxCell>
        <mxCell id="KFshp6aJ-BWy2UAYk6_I-57" value="" style="line;strokeWidth=1;fillColor=none;align=left;verticalAlign=middle;spacingTop=-1;spacingLeft=3;spacingRight=3;rotatable=0;labelPosition=right;points=[];portConstraint=eastwest;strokeColor=inherit;" parent="1" vertex="1">
          <mxGeometry x="70" y="800" width="890" height="12" as="geometry" />
        </mxCell>
        <mxCell id="KFshp6aJ-BWy2UAYk6_I-59" value="&lt;font style=&quot;font-size: 8px;&quot;&gt;Открытие страницы события&lt;/font&gt;" style="html=1;verticalAlign=bottom;endArrow=block;curved=0;rounded=0;" parent="1" edge="1">
          <mxGeometry width="80" relative="1" as="geometry">
            <mxPoint x="265" y="830" as="sourcePoint" />
            <mxPoint x="470" y="830" as="targetPoint" />
          </mxGeometry>
        </mxCell>
        <mxCell id="KFshp6aJ-BWy2UAYk6_I-65" value="&lt;font style=&quot;font-size: 8px;&quot;&gt;alt&lt;/font&gt;" style="shape=umlFrame;whiteSpace=wrap;html=1;pointerEvents=0;recursiveResize=0;container=1;collapsible=0;width=30;height=15;" parent="1" vertex="1">
          <mxGeometry x="240" y="900" width="680" height="260" as="geometry" />
        </mxCell>
        <mxCell id="KFshp6aJ-BWy2UAYk6_I-66" value="&lt;span style=&quot;font-size: 8px;&quot;&gt;[Открытое событие]&lt;/span&gt;" style="text;html=1;" parent="KFshp6aJ-BWy2UAYk6_I-65" vertex="1">
          <mxGeometry width="100" height="20" relative="1" as="geometry">
            <mxPoint x="40" as="offset" />
          </mxGeometry>
        </mxCell>
        <mxCell id="KFshp6aJ-BWy2UAYk6_I-67" value="" style="line;strokeWidth=1;dashed=1;labelPosition=center;verticalLabelPosition=bottom;align=left;verticalAlign=top;spacingLeft=20;spacingTop=15;html=1;whiteSpace=wrap;" parent="KFshp6aJ-BWy2UAYk6_I-65" vertex="1">
          <mxGeometry y="50" width="680" height="10" as="geometry" />
        </mxCell>
        <mxCell id="KFshp6aJ-BWy2UAYk6_I-68" value="&lt;font style=&quot;font-size: 8px;&quot;&gt;[Приватное событие]&lt;/font&gt;" style="text;html=1;" parent="KFshp6aJ-BWy2UAYk6_I-65" vertex="1">
          <mxGeometry x="40" y="50" width="100" height="20" as="geometry" />
        </mxCell>
        <mxCell id="KFshp6aJ-BWy2UAYk6_I-75" value="&lt;font style=&quot;font-size: 8px;&quot;&gt;Возвращение данных о событии&lt;/font&gt;" style="html=1;verticalAlign=bottom;endArrow=open;dashed=1;endSize=8;curved=0;rounded=0;" parent="KFshp6aJ-BWy2UAYk6_I-65" edge="1">
          <mxGeometry relative="1" as="geometry">
            <mxPoint x="444.5" y="30" as="sourcePoint" />
            <mxPoint x="239.5" y="30" as="targetPoint" />
          </mxGeometry>
        </mxCell>
        <mxCell id="tupzbdJy7pBthnfggFE2-1" value="&lt;span style=&quot;font-size: 8px;&quot;&gt;Отображение станицы события&lt;/span&gt;" style="html=1;verticalAlign=bottom;endArrow=open;dashed=1;endSize=8;curved=0;rounded=0;" parent="KFshp6aJ-BWy2UAYk6_I-65" target="KFshp6aJ-BWy2UAYk6_I-58" edge="1">
          <mxGeometry relative="1" as="geometry">
            <mxPoint x="230" y="40" as="sourcePoint" />
            <mxPoint x="50" y="40" as="targetPoint" />
          </mxGeometry>
        </mxCell>
        <mxCell id="tupzbdJy7pBthnfggFE2-4" value="&lt;font style=&quot;font-size: 8px;&quot;&gt;alt&lt;/font&gt;" style="shape=umlFrame;whiteSpace=wrap;html=1;pointerEvents=0;recursiveResize=0;container=1;collapsible=0;width=30;height=15;" parent="KFshp6aJ-BWy2UAYk6_I-65" vertex="1">
          <mxGeometry x="10" y="130" width="450" height="110" as="geometry" />
        </mxCell>
        <mxCell id="tupzbdJy7pBthnfggFE2-5" value="&lt;font style=&quot;font-size: 8px;&quot;&gt;[пользователь имеет доступ к событию]&lt;/font&gt;" style="text;html=1;" parent="tupzbdJy7pBthnfggFE2-4" vertex="1">
          <mxGeometry width="100" height="20" relative="1" as="geometry">
            <mxPoint x="40" y="-10" as="offset" />
          </mxGeometry>
        </mxCell>
        <mxCell id="tupzbdJy7pBthnfggFE2-6" value="" style="line;strokeWidth=1;dashed=1;labelPosition=center;verticalLabelPosition=bottom;align=left;verticalAlign=top;spacingLeft=20;spacingTop=15;html=1;whiteSpace=wrap;" parent="tupzbdJy7pBthnfggFE2-4" vertex="1">
          <mxGeometry y="50" width="450" height="10" as="geometry" />
        </mxCell>
        <mxCell id="tupzbdJy7pBthnfggFE2-8" value="&lt;font style=&quot;font-size: 8px;&quot;&gt;Возвращение данных о событии&lt;/font&gt;" style="html=1;verticalAlign=bottom;endArrow=open;dashed=1;endSize=8;curved=0;rounded=0;" parent="tupzbdJy7pBthnfggFE2-4" edge="1">
          <mxGeometry relative="1" as="geometry">
            <mxPoint x="434.75" y="30" as="sourcePoint" />
            <mxPoint x="229.75" y="30" as="targetPoint" />
          </mxGeometry>
        </mxCell>
        <mxCell id="tupzbdJy7pBthnfggFE2-9" value="&lt;span style=&quot;font-size: 8px;&quot;&gt;Отображение станицы события&lt;/span&gt;" style="html=1;verticalAlign=bottom;endArrow=open;dashed=1;endSize=8;curved=0;rounded=0;" parent="tupzbdJy7pBthnfggFE2-4" edge="1">
          <mxGeometry relative="1" as="geometry">
            <mxPoint x="220.25" y="40" as="sourcePoint" />
            <mxPoint x="15.25" y="40" as="targetPoint" />
          </mxGeometry>
        </mxCell>
        <mxCell id="tupzbdJy7pBthnfggFE2-11" value="&lt;font style=&quot;font-size: 8px;&quot;&gt;[пользователь не имеет доступа к событию]&lt;/font&gt;" style="text;html=1;" parent="tupzbdJy7pBthnfggFE2-4" vertex="1">
          <mxGeometry x="40" y="50" width="100" height="20" as="geometry" />
        </mxCell>
        <mxCell id="tupzbdJy7pBthnfggFE2-12" value="&lt;font style=&quot;font-size: 8px;&quot;&gt;Возвращение статуса 403 (доступ запрещен)&lt;/font&gt;" style="html=1;verticalAlign=bottom;endArrow=open;dashed=1;endSize=8;curved=0;rounded=0;" parent="tupzbdJy7pBthnfggFE2-4" edge="1">
          <mxGeometry relative="1" as="geometry">
            <mxPoint x="435" y="90" as="sourcePoint" />
            <mxPoint x="230" y="90" as="targetPoint" />
          </mxGeometry>
        </mxCell>
        <mxCell id="tupzbdJy7pBthnfggFE2-13" value="&lt;span style=&quot;font-size: 8px;&quot;&gt;Отображение страницы 404 (не найдено)&lt;/span&gt;" style="html=1;verticalAlign=bottom;endArrow=open;dashed=1;endSize=8;curved=0;rounded=0;" parent="tupzbdJy7pBthnfggFE2-4" edge="1">
          <mxGeometry relative="1" as="geometry">
            <mxPoint x="220" y="100" as="sourcePoint" />
            <mxPoint x="15" y="100" as="targetPoint" />
          </mxGeometry>
        </mxCell>
        <mxCell id="KFshp6aJ-BWy2UAYk6_I-70" value="&lt;span style=&quot;font-size: 8px;&quot;&gt;Запрос на получение данных о событии&lt;/span&gt;" style="html=1;verticalAlign=bottom;endArrow=block;curved=0;rounded=0;" parent="1" target="KFshp6aJ-BWy2UAYk6_I-61" edge="1">
          <mxGeometry x="-0.0014" width="80" relative="1" as="geometry">
            <mxPoint x="480" y="860" as="sourcePoint" />
            <mxPoint x="685" y="820" as="targetPoint" />
            <mxPoint as="offset" />
          </mxGeometry>
        </mxCell>
        <mxCell id="KFshp6aJ-BWy2UAYk6_I-73" value="&lt;span style=&quot;font-size: 8px;&quot;&gt;Запрос на получение данных о событии&lt;/span&gt;" style="html=1;verticalAlign=bottom;endArrow=block;curved=0;rounded=0;" parent="1" edge="1">
          <mxGeometry width="80" relative="1" as="geometry">
            <mxPoint x="695" y="870.0000000000005" as="sourcePoint" />
            <mxPoint x="895" y="870.0000000000005" as="targetPoint" />
          </mxGeometry>
        </mxCell>
        <mxCell id="KFshp6aJ-BWy2UAYk6_I-74" value="&lt;span style=&quot;font-size: 8px;&quot;&gt;Ответ на запрос&lt;/span&gt;" style="html=1;verticalAlign=bottom;endArrow=open;dashed=1;endSize=8;curved=0;rounded=0;" parent="1" edge="1">
          <mxGeometry relative="1" as="geometry">
            <mxPoint x="895" y="890" as="sourcePoint" />
            <mxPoint x="695" y="890" as="targetPoint" />
          </mxGeometry>
        </mxCell>
        <mxCell id="tupzbdJy7pBthnfggFE2-15" value="" style="line;strokeWidth=1;fillColor=none;align=left;verticalAlign=middle;spacingTop=-1;spacingLeft=3;spacingRight=3;rotatable=0;labelPosition=right;points=[];portConstraint=eastwest;strokeColor=inherit;" parent="1" vertex="1">
          <mxGeometry x="70" y="1170" width="890" height="12" as="geometry" />
        </mxCell>
        <mxCell id="tupzbdJy7pBthnfggFE2-16" value="&lt;font size=&quot;1&quot;&gt;Формирование ссылки приглашеня&lt;/font&gt;" style="ellipse;whiteSpace=wrap;html=1;" parent="1" vertex="1">
          <mxGeometry x="80" y="1200" width="120" height="60" as="geometry" />
        </mxCell>
        <mxCell id="w4r3nTZgT-towj5L5SoX-2" value="&lt;span style=&quot;font-size: 8px;&quot;&gt;Открытие страницы приватного события&lt;/span&gt;" style="html=1;verticalAlign=bottom;endArrow=block;curved=0;rounded=0;" parent="1" edge="1">
          <mxGeometry width="80" relative="1" as="geometry">
            <mxPoint x="265" y="1210" as="sourcePoint" />
            <mxPoint x="470" y="1210" as="targetPoint" />
          </mxGeometry>
        </mxCell>
        <mxCell id="w4r3nTZgT-towj5L5SoX-6" value="&lt;font style=&quot;font-size: 8px;&quot;&gt;Отображение страницы&lt;/font&gt;" style="html=1;verticalAlign=bottom;endArrow=open;dashed=1;endSize=8;curved=0;rounded=0;" parent="1" edge="1">
          <mxGeometry relative="1" as="geometry">
            <mxPoint x="469.5" y="1229.7399999999998" as="sourcePoint" />
            <mxPoint x="264.5" y="1229.7399999999998" as="targetPoint" />
          </mxGeometry>
        </mxCell>
        <mxCell id="w4r3nTZgT-towj5L5SoX-7" value="&lt;span style=&quot;font-size: 8px;&quot;&gt;Нажатие кнопки приглашения&lt;/span&gt;" style="html=1;verticalAlign=bottom;endArrow=block;curved=0;rounded=0;" parent="1" edge="1">
          <mxGeometry width="80" relative="1" as="geometry">
            <mxPoint x="265" y="1250" as="sourcePoint" />
            <mxPoint x="470" y="1250" as="targetPoint" />
          </mxGeometry>
        </mxCell>
        <mxCell id="w4r3nTZgT-towj5L5SoX-8" value="&lt;font style=&quot;font-size: 8px;&quot;&gt;Запрос на генерацию токена&lt;/font&gt;" style="html=1;verticalAlign=bottom;endArrow=block;curved=0;rounded=0;" parent="1" edge="1">
          <mxGeometry width="80" relative="1" as="geometry">
            <mxPoint x="479.5" y="1260" as="sourcePoint" />
            <mxPoint x="684.5" y="1260" as="targetPoint" />
          </mxGeometry>
        </mxCell>
        <mxCell id="w4r3nTZgT-towj5L5SoX-13" value="&lt;font style=&quot;font-size: 8px;&quot;&gt;Сохранение токена в базу данных&lt;/font&gt;" style="html=1;verticalAlign=bottom;endArrow=block;curved=0;rounded=0;" parent="1" edge="1">
          <mxGeometry width="80" relative="1" as="geometry">
            <mxPoint x="695" y="1320" as="sourcePoint" />
            <mxPoint x="895.0000000000002" y="1320" as="targetPoint" />
          </mxGeometry>
        </mxCell>
        <mxCell id="w4r3nTZgT-towj5L5SoX-14" value="&lt;font style=&quot;font-size: 8px;&quot;&gt;Возвращение токена&lt;/font&gt;" style="html=1;verticalAlign=bottom;endArrow=open;dashed=1;endSize=8;curved=0;rounded=0;" parent="1" edge="1">
          <mxGeometry x="-0.0021" relative="1" as="geometry">
            <mxPoint x="684.5" y="1330" as="sourcePoint" />
            <mxPoint x="479.5" y="1330" as="targetPoint" />
            <mxPoint as="offset" />
          </mxGeometry>
        </mxCell>
        <mxCell id="w4r3nTZgT-towj5L5SoX-15" value="&lt;font style=&quot;font-size: 8px;&quot;&gt;Копирование ссылки с параметром приглашения&lt;/font&gt;" style="html=1;verticalAlign=bottom;endArrow=open;dashed=1;endSize=8;curved=0;rounded=0;" parent="1" edge="1">
          <mxGeometry relative="1" as="geometry">
            <mxPoint x="469.5" y="1340" as="sourcePoint" />
            <mxPoint x="264.5" y="1340" as="targetPoint" />
          </mxGeometry>
        </mxCell>
        <mxCell id="w4r3nTZgT-towj5L5SoX-16" value="&lt;span style=&quot;font-size: 8px;&quot;&gt;Отображение сообщения об успешном копировании&lt;/span&gt;" style="html=1;verticalAlign=bottom;endArrow=open;dashed=1;endSize=8;curved=0;rounded=0;" parent="1" edge="1">
          <mxGeometry relative="1" as="geometry">
            <mxPoint x="469.5" y="1360" as="sourcePoint" />
            <mxPoint x="264.4999999999999" y="1360" as="targetPoint" />
          </mxGeometry>
        </mxCell>
        <mxCell id="w4r3nTZgT-towj5L5SoX-17" value="&lt;div&gt;&lt;br&gt;&lt;/div&gt;" style="shape=umlLifeline;perimeter=lifelinePerimeter;whiteSpace=wrap;html=1;container=1;dropTarget=0;collapsible=0;recursiveResize=0;outlineConnect=0;portConstraint=eastwest;newEdgeStyle={&quot;curved&quot;:0,&quot;rounded&quot;:0};participant=umlActor;" parent="1" vertex="1">
          <mxGeometry x="1406" y="40" width="20" height="1260" as="geometry" />
        </mxCell>
        <mxCell id="w4r3nTZgT-towj5L5SoX-25" value="&lt;font style=&quot;font-size: 8px;&quot;&gt;Пользователь&lt;/font&gt;" style="text;html=1;align=center;verticalAlign=middle;resizable=0;points=[];autosize=1;strokeColor=none;fillColor=none;" parent="1" vertex="1">
          <mxGeometry x="1376" y="80" width="80" height="30" as="geometry" />
        </mxCell>
        <mxCell id="w4r3nTZgT-towj5L5SoX-26" value=":Клиент" style="shape=umlLifeline;perimeter=lifelinePerimeter;whiteSpace=wrap;html=1;container=0;dropTarget=0;collapsible=0;recursiveResize=0;outlineConnect=0;portConstraint=eastwest;newEdgeStyle={&quot;curved&quot;:0,&quot;rounded&quot;:0};movable=1;resizable=1;rotatable=1;deletable=1;editable=1;locked=0;connectable=1;" parent="1" vertex="1">
          <mxGeometry x="1583.5" y="45" width="100" height="1260" as="geometry" />
        </mxCell>
        <mxCell id="w4r3nTZgT-towj5L5SoX-132" value="&lt;div&gt;&lt;br&gt;&lt;/div&gt;" style="shape=umlLifeline;perimeter=lifelinePerimeter;whiteSpace=wrap;html=1;container=1;dropTarget=0;collapsible=0;recursiveResize=0;outlineConnect=0;portConstraint=eastwest;newEdgeStyle={&quot;curved&quot;:0,&quot;rounded&quot;:0};participant=umlActor;" parent="1" vertex="1">
          <mxGeometry x="2531" y="40" width="20" height="1000" as="geometry" />
        </mxCell>
        <mxCell id="w4r3nTZgT-towj5L5SoX-139" value="&lt;font style=&quot;font-size: 8px;&quot;&gt;Пользователь&lt;/font&gt;" style="text;html=1;align=center;verticalAlign=middle;resizable=0;points=[];autosize=1;strokeColor=none;fillColor=none;" parent="1" vertex="1">
          <mxGeometry x="2501" y="80" width="80" height="30" as="geometry" />
        </mxCell>
        <mxCell id="w4r3nTZgT-towj5L5SoX-140" value=":Клиент" style="shape=umlLifeline;perimeter=lifelinePerimeter;whiteSpace=wrap;html=1;container=1;dropTarget=0;collapsible=0;recursiveResize=0;outlineConnect=0;portConstraint=eastwest;newEdgeStyle={&quot;curved&quot;:0,&quot;rounded&quot;:0};" parent="1" vertex="1">
          <mxGeometry x="2706" y="40" width="100" height="1000" as="geometry" />
        </mxCell>
        <mxCell id="w4r3nTZgT-towj5L5SoX-147" value=":Сервер" style="shape=umlLifeline;perimeter=lifelinePerimeter;whiteSpace=wrap;html=1;container=1;dropTarget=0;collapsible=0;recursiveResize=0;outlineConnect=0;portConstraint=eastwest;newEdgeStyle={&quot;curved&quot;:0,&quot;rounded&quot;:0};" parent="1" vertex="1">
          <mxGeometry x="2921" y="40" width="100" height="1000" as="geometry" />
        </mxCell>
        <mxCell id="w4r3nTZgT-towj5L5SoX-158" value=":База данных" style="shape=umlLifeline;perimeter=lifelinePerimeter;whiteSpace=wrap;html=1;container=1;dropTarget=0;collapsible=0;recursiveResize=0;outlineConnect=0;portConstraint=eastwest;newEdgeStyle={&quot;curved&quot;:0,&quot;rounded&quot;:0};" parent="1" vertex="1">
          <mxGeometry x="3131" y="40" width="100" height="1000" as="geometry" />
        </mxCell>
        <mxCell id="w4r3nTZgT-towj5L5SoX-165" value=":API Нейросети" style="shape=umlLifeline;perimeter=lifelinePerimeter;whiteSpace=wrap;html=1;container=1;dropTarget=0;collapsible=0;recursiveResize=0;outlineConnect=0;portConstraint=eastwest;newEdgeStyle={&quot;curved&quot;:0,&quot;rounded&quot;:0};" parent="1" vertex="1">
          <mxGeometry x="3531" y="40" width="100" height="1000" as="geometry" />
        </mxCell>
        <mxCell id="w4r3nTZgT-towj5L5SoX-167" value=":API Яндекс.Карт" style="shape=umlLifeline;perimeter=lifelinePerimeter;whiteSpace=wrap;html=1;container=1;dropTarget=0;collapsible=0;recursiveResize=0;outlineConnect=0;portConstraint=eastwest;newEdgeStyle={&quot;curved&quot;:0,&quot;rounded&quot;:0};" parent="1" vertex="1">
          <mxGeometry x="3331" y="40" width="100" height="1000" as="geometry" />
        </mxCell>
        <mxCell id="wU3n_rQM4WOVsUsWKxBK-1" value="" style="html=1;points=[[0,0,0,0,5],[0,1,0,0,-5],[1,0,0,0,5],[1,1,0,0,-5]];perimeter=orthogonalPerimeter;outlineConnect=0;targetShapes=umlLifeline;portConstraint=eastwest;newEdgeStyle={&quot;curved&quot;:0,&quot;rounded&quot;:0};" parent="1" vertex="1">
          <mxGeometry x="2536" y="120" width="10" height="880" as="geometry" />
        </mxCell>
        <mxCell id="wU3n_rQM4WOVsUsWKxBK-2" value="" style="html=1;points=[[0,0,0,0,5],[0,1,0,0,-5],[1,0,0,0,5],[1,1,0,0,-5]];perimeter=orthogonalPerimeter;outlineConnect=0;targetShapes=umlLifeline;portConstraint=eastwest;newEdgeStyle={&quot;curved&quot;:0,&quot;rounded&quot;:0};" parent="1" vertex="1">
          <mxGeometry x="2751" y="120" width="10" height="880" as="geometry" />
        </mxCell>
        <mxCell id="wU3n_rQM4WOVsUsWKxBK-3" value="" style="html=1;points=[[0,0,0,0,5],[0,1,0,0,-5],[1,0,0,0,5],[1,1,0,0,-5]];perimeter=orthogonalPerimeter;outlineConnect=0;targetShapes=umlLifeline;portConstraint=eastwest;newEdgeStyle={&quot;curved&quot;:0,&quot;rounded&quot;:0};" parent="1" vertex="1">
          <mxGeometry x="2966" y="551" width="10" height="319" as="geometry" />
        </mxCell>
        <mxCell id="wU3n_rQM4WOVsUsWKxBK-4" value="&lt;font style=&quot;font-size: 8px;&quot;&gt;Сохранение изображения&lt;/font&gt;" style="html=1;align=left;spacingLeft=2;endArrow=block;rounded=0;edgeStyle=orthogonalEdgeStyle;curved=0;rounded=0;" parent="1" edge="1">
          <mxGeometry relative="1" as="geometry">
            <mxPoint x="2976" y="760.0000000000005" as="sourcePoint" />
            <Array as="points">
              <mxPoint x="3011" y="760" />
              <mxPoint x="3011" y="790" />
            </Array>
            <mxPoint x="2976" y="790.0000000000005" as="targetPoint" />
          </mxGeometry>
        </mxCell>
        <mxCell id="wU3n_rQM4WOVsUsWKxBK-5" value="" style="html=1;points=[[0,0,0,0,5],[0,1,0,0,-5],[1,0,0,0,5],[1,1,0,0,-5]];perimeter=orthogonalPerimeter;outlineConnect=0;targetShapes=umlLifeline;portConstraint=eastwest;newEdgeStyle={&quot;curved&quot;:0,&quot;rounded&quot;:0};" parent="1" vertex="1">
          <mxGeometry x="3176" y="800" width="10" height="40" as="geometry" />
        </mxCell>
        <mxCell id="wU3n_rQM4WOVsUsWKxBK-6" value="&lt;font size=&quot;1&quot;&gt;Создание события&lt;/font&gt;" style="ellipse;whiteSpace=wrap;html=1;" parent="1" vertex="1">
          <mxGeometry x="2351" y="120" width="120" height="60" as="geometry" />
        </mxCell>
        <mxCell id="wU3n_rQM4WOVsUsWKxBK-7" value="&lt;font style=&quot;font-size: 8px;&quot;&gt;Отображение страницы создания события&lt;/font&gt;" style="html=1;verticalAlign=bottom;endArrow=open;dashed=1;endSize=8;curved=0;rounded=0;" parent="1" edge="1">
          <mxGeometry relative="1" as="geometry">
            <mxPoint x="2751" y="149.69000000000005" as="sourcePoint" />
            <mxPoint x="2546" y="149.69000000000005" as="targetPoint" />
          </mxGeometry>
        </mxCell>
        <mxCell id="wU3n_rQM4WOVsUsWKxBK-8" value="&lt;span style=&quot;font-size: 8px;&quot;&gt;Заполнение полей с данными о событии&lt;/span&gt;" style="html=1;verticalAlign=bottom;endArrow=block;curved=0;rounded=0;" parent="1" edge="1">
          <mxGeometry width="80" relative="1" as="geometry">
            <mxPoint x="2546" y="170" as="sourcePoint" />
            <mxPoint x="2751" y="170" as="targetPoint" />
          </mxGeometry>
        </mxCell>
        <mxCell id="wU3n_rQM4WOVsUsWKxBK-9" value="&lt;font style=&quot;font-size: 8px; line-height: 70%;&quot;&gt;Нажатие кнопки &quot;Выбрать&quot;&lt;br&gt;в поле места проведения&lt;/font&gt;" style="html=1;verticalAlign=bottom;endArrow=block;curved=0;rounded=0;" parent="1" edge="1">
          <mxGeometry x="0.0019" width="80" relative="1" as="geometry">
            <mxPoint x="2546" y="210" as="sourcePoint" />
            <mxPoint x="2751" y="210" as="targetPoint" />
            <mxPoint as="offset" />
          </mxGeometry>
        </mxCell>
        <mxCell id="wU3n_rQM4WOVsUsWKxBK-10" value="&lt;font style=&quot;font-size: 8px;&quot;&gt;Отображение страницы с картой&lt;/font&gt;" style="html=1;verticalAlign=bottom;endArrow=open;dashed=1;endSize=8;curved=0;rounded=0;" parent="1" edge="1">
          <mxGeometry relative="1" as="geometry">
            <mxPoint x="2751" y="340" as="sourcePoint" />
            <mxPoint x="2546" y="340" as="targetPoint" />
          </mxGeometry>
        </mxCell>
        <mxCell id="wU3n_rQM4WOVsUsWKxBK-11" value="&lt;font style=&quot;font-size: 8px;&quot;&gt;Взаимодействие с картой&lt;/font&gt;" style="html=1;verticalAlign=bottom;endArrow=block;curved=0;rounded=0;" parent="1" edge="1">
          <mxGeometry width="80" relative="1" as="geometry">
            <mxPoint x="2546" y="360" as="sourcePoint" />
            <mxPoint x="2751" y="360" as="targetPoint" />
          </mxGeometry>
        </mxCell>
        <mxCell id="wU3n_rQM4WOVsUsWKxBK-12" value="&lt;font style=&quot;font-size: 8px;&quot;&gt;Нажатие кнопки &quot;Сохранить&quot;&lt;/font&gt;" style="html=1;verticalAlign=bottom;endArrow=block;curved=0;rounded=0;" parent="1" edge="1">
          <mxGeometry width="80" relative="1" as="geometry">
            <mxPoint x="2546" y="420" as="sourcePoint" />
            <mxPoint x="2751" y="420" as="targetPoint" />
          </mxGeometry>
        </mxCell>
        <mxCell id="wU3n_rQM4WOVsUsWKxBK-13" value="&lt;span style=&quot;font-size: 8px;&quot;&gt;Отображение формы создания&lt;/span&gt;" style="html=1;verticalAlign=bottom;endArrow=open;dashed=1;endSize=8;curved=0;rounded=0;" parent="1" edge="1">
          <mxGeometry relative="1" as="geometry">
            <mxPoint x="2751" y="441" as="sourcePoint" />
            <mxPoint x="2546" y="441" as="targetPoint" />
          </mxGeometry>
        </mxCell>
        <mxCell id="wU3n_rQM4WOVsUsWKxBK-14" value="&lt;span style=&quot;font-size: 8px;&quot;&gt;opt&lt;/span&gt;" style="shape=umlFrame;whiteSpace=wrap;html=1;pointerEvents=0;width=30;height=15;" parent="1" vertex="1">
          <mxGeometry x="2501" y="461" width="1110" height="259" as="geometry" />
        </mxCell>
        <mxCell id="wU3n_rQM4WOVsUsWKxBK-15" value="&lt;font style=&quot;font-size: 8px;&quot;&gt;[Помощь ИИ]&lt;/font&gt;" style="text;html=1;align=center;verticalAlign=middle;resizable=0;points=[];autosize=1;strokeColor=none;fillColor=none;" parent="1" vertex="1">
          <mxGeometry x="2551" y="451" width="70" height="30" as="geometry" />
        </mxCell>
        <mxCell id="wU3n_rQM4WOVsUsWKxBK-16" value="&lt;span style=&quot;font-size: 8px;&quot;&gt;Нажатие кнопки &quot;Помощь ИИ&quot;&lt;/span&gt;" style="html=1;verticalAlign=bottom;endArrow=block;curved=0;rounded=0;" parent="1" edge="1">
          <mxGeometry width="80" relative="1" as="geometry">
            <mxPoint x="2546" y="491" as="sourcePoint" />
            <mxPoint x="2751" y="491" as="targetPoint" />
            <Array as="points">
              <mxPoint x="2711.63" y="491" />
            </Array>
          </mxGeometry>
        </mxCell>
        <mxCell id="wU3n_rQM4WOVsUsWKxBK-17" value="&lt;font style=&quot;font-size: 8px;&quot;&gt;Отображение страницы &quot;Помощь ИИ&quot;&lt;/font&gt;" style="html=1;verticalAlign=bottom;endArrow=open;dashed=1;endSize=8;curved=0;rounded=0;" parent="1" edge="1">
          <mxGeometry x="0.0003" relative="1" as="geometry">
            <mxPoint x="2751" y="511" as="sourcePoint" />
            <mxPoint x="2546" y="511" as="targetPoint" />
            <mxPoint as="offset" />
          </mxGeometry>
        </mxCell>
        <mxCell id="wU3n_rQM4WOVsUsWKxBK-18" value="&lt;span style=&quot;font-size: 8px;&quot;&gt;Нажатие кнопки &quot;Сформировать&quot;&lt;/span&gt;" style="html=1;verticalAlign=bottom;endArrow=block;curved=0;rounded=0;" parent="1" edge="1">
          <mxGeometry width="80" relative="1" as="geometry">
            <mxPoint x="2546" y="531.0000000000005" as="sourcePoint" />
            <mxPoint x="2751" y="531.0000000000005" as="targetPoint" />
          </mxGeometry>
        </mxCell>
        <mxCell id="wU3n_rQM4WOVsUsWKxBK-19" value="&lt;span style=&quot;font-size: 8px;&quot;&gt;while&lt;/span&gt;" style="shape=umlFrame;whiteSpace=wrap;html=1;pointerEvents=0;width=35;height=15;" parent="1" vertex="1">
          <mxGeometry x="2506" y="541" width="1095" height="89" as="geometry" />
        </mxCell>
        <mxCell id="wU3n_rQM4WOVsUsWKxBK-20" value="&lt;font style=&quot;font-size: 8px;&quot;&gt;[Не нажата кнопка &quot;Использовать&quot; или &quot;Назад&quot;]&lt;/font&gt;" style="text;html=1;align=center;verticalAlign=middle;resizable=0;points=[];autosize=1;strokeColor=none;fillColor=none;" parent="1" vertex="1">
          <mxGeometry x="2536" y="531" width="210" height="30" as="geometry" />
        </mxCell>
        <mxCell id="wU3n_rQM4WOVsUsWKxBK-21" value="&lt;font style=&quot;font-size: 8px;&quot;&gt;Запрос на генерацию описания&lt;/font&gt;" style="html=1;verticalAlign=bottom;endArrow=block;curved=0;rounded=0;" parent="1" edge="1">
          <mxGeometry x="0.0027" width="80" relative="1" as="geometry">
            <mxPoint x="2761" y="561" as="sourcePoint" />
            <mxPoint x="2966" y="561" as="targetPoint" />
            <mxPoint as="offset" />
          </mxGeometry>
        </mxCell>
        <mxCell id="wU3n_rQM4WOVsUsWKxBK-23" value="" style="html=1;points=[[0,0,0,0,5],[0,1,0,0,-5],[1,0,0,0,5],[1,1,0,0,-5]];perimeter=orthogonalPerimeter;outlineConnect=0;targetShapes=umlLifeline;portConstraint=eastwest;newEdgeStyle={&quot;curved&quot;:0,&quot;rounded&quot;:0};" parent="1" vertex="1">
          <mxGeometry x="3576" y="561" width="10" height="39" as="geometry" />
        </mxCell>
        <mxCell id="wU3n_rQM4WOVsUsWKxBK-24" value="&lt;font style=&quot;font-size: 8px;&quot;&gt;alt&lt;/font&gt;" style="shape=umlFrame;whiteSpace=wrap;html=1;pointerEvents=0;recursiveResize=0;container=1;collapsible=0;width=30;height=15;" parent="1" vertex="1">
          <mxGeometry x="2741" y="220" width="670" height="90" as="geometry" />
        </mxCell>
        <mxCell id="wU3n_rQM4WOVsUsWKxBK-25" value="" style="html=1;points=[[0,0,0,0,5],[0,1,0,0,-5],[1,0,0,0,5],[1,1,0,0,-5]];perimeter=orthogonalPerimeter;outlineConnect=0;targetShapes=umlLifeline;portConstraint=eastwest;newEdgeStyle={&quot;curved&quot;:0,&quot;rounded&quot;:0};" parent="wU3n_rQM4WOVsUsWKxBK-24" vertex="1">
          <mxGeometry x="635" y="20" width="10" height="160" as="geometry" />
        </mxCell>
        <mxCell id="wU3n_rQM4WOVsUsWKxBK-26" value="&lt;font style=&quot;font-size: 8px;&quot;&gt;[Получение местоположения устройства разрешено]&lt;/font&gt;" style="text;html=1;" parent="wU3n_rQM4WOVsUsWKxBK-24" vertex="1">
          <mxGeometry width="100" height="20" relative="1" as="geometry">
            <mxPoint x="30" y="-10" as="offset" />
          </mxGeometry>
        </mxCell>
        <mxCell id="wU3n_rQM4WOVsUsWKxBK-27" value="" style="line;strokeWidth=1;dashed=1;labelPosition=center;verticalLabelPosition=bottom;align=left;verticalAlign=top;spacingLeft=20;spacingTop=15;html=1;whiteSpace=wrap;" parent="wU3n_rQM4WOVsUsWKxBK-24" vertex="1">
          <mxGeometry y="40" width="670" height="10" as="geometry" />
        </mxCell>
        <mxCell id="wU3n_rQM4WOVsUsWKxBK-28" value="&lt;font style=&quot;font-size: 8px;&quot;&gt;Запрос на получение карты с центром в местоположении пользователя&lt;/font&gt;" style="html=1;verticalAlign=bottom;endArrow=block;curved=0;rounded=0;" parent="wU3n_rQM4WOVsUsWKxBK-24" edge="1">
          <mxGeometry x="0.0005" width="80" relative="1" as="geometry">
            <mxPoint x="19.999999999999773" y="30" as="sourcePoint" />
            <mxPoint x="635" y="30" as="targetPoint" />
            <mxPoint as="offset" />
          </mxGeometry>
        </mxCell>
        <mxCell id="wU3n_rQM4WOVsUsWKxBK-29" value="&lt;span style=&quot;font-size: 8px;&quot;&gt;[Получение местоположения запрещено]&lt;/span&gt;" style="text;html=1;align=center;verticalAlign=middle;resizable=0;points=[];autosize=1;strokeColor=none;fillColor=none;" parent="wU3n_rQM4WOVsUsWKxBK-24" vertex="1">
          <mxGeometry x="20" y="40" width="180" height="30" as="geometry" />
        </mxCell>
        <mxCell id="wU3n_rQM4WOVsUsWKxBK-30" value="&lt;font style=&quot;font-size: 8px;&quot;&gt;Запрос на получение карты с центром в Москве&lt;/font&gt;" style="html=1;verticalAlign=bottom;endArrow=block;curved=0;rounded=0;" parent="wU3n_rQM4WOVsUsWKxBK-24" edge="1">
          <mxGeometry x="0.0005" width="80" relative="1" as="geometry">
            <mxPoint x="19.999999999999773" y="80" as="sourcePoint" />
            <mxPoint x="635" y="80" as="targetPoint" />
            <mxPoint as="offset" />
          </mxGeometry>
        </mxCell>
        <mxCell id="wU3n_rQM4WOVsUsWKxBK-31" value="&lt;font style=&quot;font-size: 8px;&quot;&gt;Возвращение карты с указанным центром&lt;/font&gt;" style="html=1;verticalAlign=bottom;endArrow=open;dashed=1;endSize=8;curved=0;rounded=0;" parent="1" edge="1">
          <mxGeometry x="0.0005" relative="1" as="geometry">
            <mxPoint x="3376" y="330" as="sourcePoint" />
            <mxPoint x="2761" y="330" as="targetPoint" />
            <mxPoint as="offset" />
          </mxGeometry>
        </mxCell>
        <mxCell id="wU3n_rQM4WOVsUsWKxBK-32" value="&lt;font style=&quot;font-size: 8px;&quot;&gt;Запрос на обновление данных карты&lt;/font&gt;" style="html=1;verticalAlign=bottom;endArrow=block;curved=0;rounded=0;" parent="1" edge="1">
          <mxGeometry width="80" relative="1" as="geometry">
            <mxPoint x="2761" y="370" as="sourcePoint" />
            <mxPoint x="3380.5" y="370" as="targetPoint" />
          </mxGeometry>
        </mxCell>
        <mxCell id="wU3n_rQM4WOVsUsWKxBK-33" value="&lt;font style=&quot;font-size: 8px;&quot;&gt;Изменение данных карты&lt;/font&gt;" style="html=1;verticalAlign=bottom;endArrow=open;dashed=1;endSize=8;curved=0;rounded=0;" parent="1" edge="1">
          <mxGeometry relative="1" as="geometry">
            <mxPoint x="3376" y="390" as="sourcePoint" />
            <mxPoint x="2761" y="390" as="targetPoint" />
          </mxGeometry>
        </mxCell>
        <mxCell id="wU3n_rQM4WOVsUsWKxBK-34" value="&lt;font style=&quot;font-size: 8px;&quot;&gt;Отображение полученных данных&lt;/font&gt;" style="html=1;verticalAlign=bottom;endArrow=open;dashed=1;endSize=8;curved=0;rounded=0;" parent="1" edge="1">
          <mxGeometry relative="1" as="geometry">
            <mxPoint x="2751" y="400" as="sourcePoint" />
            <mxPoint x="2546" y="400" as="targetPoint" />
          </mxGeometry>
        </mxCell>
        <mxCell id="wU3n_rQM4WOVsUsWKxBK-35" value="&lt;span style=&quot;font-size: 8px;&quot;&gt;Запрос на генерацию по веденным данным&lt;/span&gt;" style="html=1;verticalAlign=bottom;endArrow=block;curved=0;rounded=0;" parent="1" edge="1">
          <mxGeometry width="80" relative="1" as="geometry">
            <mxPoint x="2976" y="570" as="sourcePoint" />
            <mxPoint x="3576" y="570" as="targetPoint" />
          </mxGeometry>
        </mxCell>
        <mxCell id="wU3n_rQM4WOVsUsWKxBK-36" value="&lt;font style=&quot;font-size: 8px;&quot;&gt;Возвращение сгенерированного описания&lt;/font&gt;" style="html=1;verticalAlign=bottom;endArrow=open;dashed=1;endSize=8;curved=0;rounded=0;" parent="1" edge="1">
          <mxGeometry relative="1" as="geometry">
            <mxPoint x="3576" y="590" as="sourcePoint" />
            <mxPoint x="2976" y="590" as="targetPoint" />
            <mxPoint as="offset" />
          </mxGeometry>
        </mxCell>
        <mxCell id="wU3n_rQM4WOVsUsWKxBK-37" value="&lt;font style=&quot;font-size: 8px;&quot;&gt;Возвращение ответа с описанием&lt;/font&gt;" style="html=1;verticalAlign=bottom;endArrow=open;dashed=1;endSize=8;curved=0;rounded=0;" parent="1" edge="1">
          <mxGeometry relative="1" as="geometry">
            <mxPoint x="2966" y="610" as="sourcePoint" />
            <mxPoint x="2761" y="610" as="targetPoint" />
          </mxGeometry>
        </mxCell>
        <mxCell id="wU3n_rQM4WOVsUsWKxBK-38" value="&lt;font style=&quot;font-size: 8px;&quot;&gt;Отображение сгенерированного описания&lt;/font&gt;&lt;div&gt;&lt;font style=&quot;font-size: 8px;&quot;&gt;и кнопок &quot;Повторить&quot; и &quot;Использовать&quot;&lt;/font&gt;&lt;/div&gt;" style="html=1;verticalAlign=bottom;endArrow=open;dashed=1;endSize=8;curved=0;rounded=0;" parent="1" edge="1">
          <mxGeometry x="0.0022" relative="1" as="geometry">
            <mxPoint x="2751" y="619" as="sourcePoint" />
            <mxPoint x="2546" y="619" as="targetPoint" />
            <mxPoint as="offset" />
          </mxGeometry>
        </mxCell>
        <mxCell id="wU3n_rQM4WOVsUsWKxBK-39" value="&lt;font style=&quot;font-size: 8px;&quot;&gt;Нажатие кнопки использовать&lt;/font&gt;" style="html=1;verticalAlign=bottom;endArrow=block;curved=0;rounded=0;" parent="1" edge="1">
          <mxGeometry width="80" relative="1" as="geometry">
            <mxPoint x="2546" y="650" as="sourcePoint" />
            <mxPoint x="2751" y="650" as="targetPoint" />
          </mxGeometry>
        </mxCell>
        <mxCell id="wU3n_rQM4WOVsUsWKxBK-40" value="&lt;font style=&quot;font-size: 8px;&quot;&gt;Изменение описания&lt;/font&gt;&lt;div&gt;&lt;font style=&quot;font-size: 8px;&quot;&gt;события&lt;/font&gt;&lt;/div&gt;" style="html=1;align=left;spacingLeft=2;endArrow=block;rounded=0;edgeStyle=orthogonalEdgeStyle;curved=0;rounded=0;" parent="1" target="wU3n_rQM4WOVsUsWKxBK-2" edge="1">
          <mxGeometry relative="1" as="geometry">
            <mxPoint x="2761" y="660" as="sourcePoint" />
            <Array as="points">
              <mxPoint x="2791" y="660" />
              <mxPoint x="2791" y="690" />
            </Array>
            <mxPoint x="2766" y="690" as="targetPoint" />
          </mxGeometry>
        </mxCell>
        <mxCell id="wU3n_rQM4WOVsUsWKxBK-41" value="&lt;span style=&quot;font-size: 8px;&quot;&gt;Отображение формы создания&lt;/span&gt;" style="html=1;verticalAlign=bottom;endArrow=open;dashed=1;endSize=8;curved=0;rounded=0;" parent="1" edge="1">
          <mxGeometry x="-0.0004" relative="1" as="geometry">
            <mxPoint x="2751" y="700" as="sourcePoint" />
            <mxPoint x="2546" y="700" as="targetPoint" />
            <mxPoint as="offset" />
          </mxGeometry>
        </mxCell>
        <mxCell id="wU3n_rQM4WOVsUsWKxBK-42" value="&lt;span style=&quot;font-size: 8px;&quot;&gt;Нажатие кнопки &quot;Создать&quot;&lt;/span&gt;" style="html=1;verticalAlign=bottom;endArrow=block;curved=0;rounded=0;" parent="1" edge="1">
          <mxGeometry width="80" relative="1" as="geometry">
            <mxPoint x="2546" y="740" as="sourcePoint" />
            <mxPoint x="2751" y="740" as="targetPoint" />
          </mxGeometry>
        </mxCell>
        <mxCell id="wU3n_rQM4WOVsUsWKxBK-43" value="&lt;span style=&quot;font-size: 8px;&quot;&gt;Запрос на добавление события&lt;/span&gt;" style="html=1;verticalAlign=bottom;endArrow=block;curved=0;rounded=0;" parent="1" edge="1">
          <mxGeometry width="80" relative="1" as="geometry">
            <mxPoint x="2761" y="750" as="sourcePoint" />
            <mxPoint x="2966" y="750" as="targetPoint" />
          </mxGeometry>
        </mxCell>
        <mxCell id="wU3n_rQM4WOVsUsWKxBK-45" value="&lt;font style=&quot;font-size: 8px;&quot;&gt;Запрос на сохранения события&lt;/font&gt;" style="html=1;verticalAlign=bottom;endArrow=block;curved=0;rounded=0;" parent="1" edge="1">
          <mxGeometry width="80" relative="1" as="geometry">
            <mxPoint x="2976" y="810" as="sourcePoint" />
            <mxPoint x="3176" y="810" as="targetPoint" />
          </mxGeometry>
        </mxCell>
        <mxCell id="wU3n_rQM4WOVsUsWKxBK-46" value="&lt;font style=&quot;font-size: 8px;&quot;&gt;Ответ на запрос&lt;/font&gt;" style="html=1;verticalAlign=bottom;endArrow=open;dashed=1;endSize=8;curved=0;rounded=0;" parent="1" edge="1">
          <mxGeometry relative="1" as="geometry">
            <mxPoint x="3176" y="830" as="sourcePoint" />
            <mxPoint x="2976" y="830" as="targetPoint" />
          </mxGeometry>
        </mxCell>
        <mxCell id="wU3n_rQM4WOVsUsWKxBK-47" value="&lt;font style=&quot;font-size: 9px;&quot;&gt;Возвращение результата запроса&lt;/font&gt;" style="html=1;verticalAlign=bottom;endArrow=open;dashed=1;endSize=8;curved=0;rounded=0;" parent="1" edge="1">
          <mxGeometry relative="1" as="geometry">
            <mxPoint x="2966" y="859.9999999999995" as="sourcePoint" />
            <mxPoint x="2761" y="859.9999999999995" as="targetPoint" />
          </mxGeometry>
        </mxCell>
        <mxCell id="wU3n_rQM4WOVsUsWKxBK-48" value="&lt;font style=&quot;font-size: 8px;&quot;&gt;alt&lt;/font&gt;" style="shape=umlFrame;whiteSpace=wrap;html=1;pointerEvents=0;recursiveResize=0;container=1;collapsible=0;width=30;height=20;" parent="1" vertex="1">
          <mxGeometry x="2521" y="872" width="250" height="118" as="geometry" />
        </mxCell>
        <mxCell id="wU3n_rQM4WOVsUsWKxBK-49" value="&lt;font style=&quot;font-size: 8px;&quot;&gt;[Успех]&lt;/font&gt;" style="text;html=1;" parent="wU3n_rQM4WOVsUsWKxBK-48" vertex="1">
          <mxGeometry width="100" height="20" relative="1" as="geometry">
            <mxPoint x="40" y="-9" as="offset" />
          </mxGeometry>
        </mxCell>
        <mxCell id="wU3n_rQM4WOVsUsWKxBK-50" value="" style="line;strokeWidth=1;dashed=1;labelPosition=center;verticalLabelPosition=bottom;align=left;verticalAlign=top;spacingLeft=20;spacingTop=15;html=1;whiteSpace=wrap;" parent="wU3n_rQM4WOVsUsWKxBK-48" vertex="1">
          <mxGeometry y="58" width="250" height="10" as="geometry" />
        </mxCell>
        <mxCell id="wU3n_rQM4WOVsUsWKxBK-51" value="&lt;font style=&quot;font-size: 8px;&quot;&gt;Отображение страницы&lt;/font&gt;&lt;div&gt;&lt;font style=&quot;font-size: 8px;&quot;&gt;с событиями пользователя&lt;/font&gt;&lt;/div&gt;" style="html=1;verticalAlign=bottom;endArrow=open;dashed=1;endSize=8;curved=0;rounded=0;" parent="wU3n_rQM4WOVsUsWKxBK-48" edge="1">
          <mxGeometry relative="1" as="geometry">
            <mxPoint x="228.74999999999977" y="48" as="sourcePoint" />
            <mxPoint x="23.75" y="48" as="targetPoint" />
          </mxGeometry>
        </mxCell>
        <mxCell id="wU3n_rQM4WOVsUsWKxBK-52" value="&lt;font style=&quot;font-size: 8px;&quot;&gt;[Ошибка]&lt;/font&gt;" style="text;html=1;" parent="wU3n_rQM4WOVsUsWKxBK-48" vertex="1">
          <mxGeometry x="40" y="58" width="100" height="20" as="geometry" />
        </mxCell>
        <mxCell id="wU3n_rQM4WOVsUsWKxBK-53" value="&lt;span style=&quot;font-size: 8px;&quot;&gt;Отображение всплывающей ошибки&lt;/span&gt;" style="html=1;verticalAlign=bottom;endArrow=open;dashed=1;endSize=8;curved=0;rounded=0;" parent="wU3n_rQM4WOVsUsWKxBK-48" edge="1">
          <mxGeometry relative="1" as="geometry">
            <mxPoint x="228.99999999999977" y="98" as="sourcePoint" />
            <mxPoint x="24" y="98" as="targetPoint" />
          </mxGeometry>
        </mxCell>
        <mxCell id="wU3n_rQM4WOVsUsWKxBK-54" value="&lt;span style=&quot;font-size: 8px;&quot;&gt;Нажатие кнопки &quot;+&quot; на странице пользователя&lt;/span&gt;" style="html=1;verticalAlign=bottom;endArrow=block;curved=0;rounded=0;" parent="1" edge="1">
          <mxGeometry width="80" relative="1" as="geometry">
            <mxPoint x="2545.5" y="130" as="sourcePoint" />
            <mxPoint x="2750.5" y="130" as="targetPoint" />
          </mxGeometry>
        </mxCell>
        <mxCell id="1AkQ8vg9Ra2n0IIN2AeK-1" value="&lt;font style=&quot;font-size: 8px;&quot;&gt;Пользователь&lt;/font&gt;" style="shape=umlActor;verticalLabelPosition=bottom;verticalAlign=top;html=1;outlineConnect=0;" parent="1" vertex="1">
          <mxGeometry x="2531" y="1030" width="20" height="40" as="geometry" />
        </mxCell>
        <mxCell id="1AkQ8vg9Ra2n0IIN2AeK-4" value=":Клиент" style="rounded=0;whiteSpace=wrap;html=1;" parent="1" vertex="1">
          <mxGeometry x="2703.5" y="1030" width="105" height="40" as="geometry" />
        </mxCell>
        <mxCell id="1AkQ8vg9Ra2n0IIN2AeK-6" value=":Сервер" style="rounded=0;whiteSpace=wrap;html=1;" parent="1" vertex="1">
          <mxGeometry x="2918.5" y="1030" width="105" height="40" as="geometry" />
        </mxCell>
        <mxCell id="1AkQ8vg9Ra2n0IIN2AeK-7" value=":База данных" style="rounded=0;whiteSpace=wrap;html=1;" parent="1" vertex="1">
          <mxGeometry x="3128.5" y="1030" width="105" height="40" as="geometry" />
        </mxCell>
        <mxCell id="1AkQ8vg9Ra2n0IIN2AeK-8" value=":API Яндекс.Карт" style="rounded=0;whiteSpace=wrap;html=1;" parent="1" vertex="1">
          <mxGeometry x="3328.5" y="1030" width="105" height="40" as="geometry" />
        </mxCell>
        <mxCell id="1AkQ8vg9Ra2n0IIN2AeK-9" value=":API Нейросети" style="rounded=0;whiteSpace=wrap;html=1;" parent="1" vertex="1">
          <mxGeometry x="3528.5" y="1030" width="105" height="40" as="geometry" />
        </mxCell>
        <mxCell id="1AkQ8vg9Ra2n0IIN2AeK-10" value="&lt;font style=&quot;font-size: 8px;&quot;&gt;Пользователь&lt;/font&gt;" style="shape=umlActor;verticalLabelPosition=bottom;verticalAlign=top;html=1;outlineConnect=0;" parent="1" vertex="1">
          <mxGeometry x="1406" y="1300" width="20" height="40" as="geometry" />
        </mxCell>
        <mxCell id="1AkQ8vg9Ra2n0IIN2AeK-11" value=":Клиент" style="rounded=0;whiteSpace=wrap;html=1;" parent="1" vertex="1">
          <mxGeometry x="1578.5" y="1300" width="105" height="40" as="geometry" />
        </mxCell>
        <mxCell id="1AkQ8vg9Ra2n0IIN2AeK-12" value=":Сервер" style="rounded=0;whiteSpace=wrap;html=1;" parent="1" vertex="1">
          <mxGeometry x="1793.5" y="1300" width="105" height="40" as="geometry" />
        </mxCell>
        <mxCell id="1AkQ8vg9Ra2n0IIN2AeK-13" value=":База данных" style="rounded=0;whiteSpace=wrap;html=1;" parent="1" vertex="1">
          <mxGeometry x="2003.5" y="1300" width="105" height="40" as="geometry" />
        </mxCell>
        <mxCell id="1AkQ8vg9Ra2n0IIN2AeK-14" value="&lt;font style=&quot;font-size: 8px;&quot;&gt;Пользователь&lt;/font&gt;" style="shape=umlActor;verticalLabelPosition=bottom;verticalAlign=top;html=1;outlineConnect=0;" parent="1" vertex="1">
          <mxGeometry x="250" y="1400" width="20" height="40" as="geometry" />
        </mxCell>
        <mxCell id="1AkQ8vg9Ra2n0IIN2AeK-15" value=":Клиент" style="rounded=0;whiteSpace=wrap;html=1;" parent="1" vertex="1">
          <mxGeometry x="422.5" y="1400" width="105" height="40" as="geometry" />
        </mxCell>
        <mxCell id="1AkQ8vg9Ra2n0IIN2AeK-16" value=":Сервер" style="rounded=0;whiteSpace=wrap;html=1;" parent="1" vertex="1">
          <mxGeometry x="637.5" y="1400" width="105" height="40" as="geometry" />
        </mxCell>
        <mxCell id="1AkQ8vg9Ra2n0IIN2AeK-17" value=":База данных" style="rounded=0;whiteSpace=wrap;html=1;" parent="1" vertex="1">
          <mxGeometry x="847.5" y="1400" width="105" height="40" as="geometry" />
        </mxCell>
        <mxCell id="w4r3nTZgT-towj5L5SoX-58" value="" style="html=1;points=[[0,0,0,0,5],[0,1,0,0,-5],[1,0,0,0,5],[1,1,0,0,-5]];perimeter=orthogonalPerimeter;outlineConnect=0;targetShapes=umlLifeline;portConstraint=eastwest;newEdgeStyle={&quot;curved&quot;:0,&quot;rounded&quot;:0};" parent="1" vertex="1">
          <mxGeometry x="1411.5" y="132" width="10" height="428" as="geometry" />
        </mxCell>
        <mxCell id="w4r3nTZgT-towj5L5SoX-59" value="" style="html=1;points=[[0,0,0,0,5],[0,1,0,0,-5],[1,0,0,0,5],[1,1,0,0,-5]];perimeter=orthogonalPerimeter;outlineConnect=0;targetShapes=umlLifeline;portConstraint=eastwest;newEdgeStyle={&quot;curved&quot;:0,&quot;rounded&quot;:0};" parent="1" vertex="1">
          <mxGeometry x="1628.5" y="132" width="10" height="428" as="geometry" />
        </mxCell>
        <mxCell id="w4r3nTZgT-towj5L5SoX-63" value="&lt;font size=&quot;1&quot;&gt;Сброс пароля&lt;/font&gt;" style="ellipse;whiteSpace=wrap;html=1;" parent="1" vertex="1">
          <mxGeometry x="1228.5" y="135" width="120" height="60" as="geometry" />
        </mxCell>
        <mxCell id="w4r3nTZgT-towj5L5SoX-64" value="&lt;font style=&quot;font-size: 8px;&quot;&gt;while&lt;/font&gt;" style="shape=umlFrame;whiteSpace=wrap;html=1;pointerEvents=0;recursiveResize=0;container=0;collapsible=0;width=35;height=20;" parent="1" vertex="1">
          <mxGeometry x="1368.5" y="177" width="711.5" height="393" as="geometry" />
        </mxCell>
        <mxCell id="w4r3nTZgT-towj5L5SoX-86" value="&lt;font style=&quot;font-size: 8px;&quot;&gt;Нажатие кнопки &quot;Забыли пароль?&quot;&lt;/font&gt;&lt;div&gt;&lt;font style=&quot;font-size: 8px;&quot;&gt;на странице авторизации&lt;/font&gt;&lt;/div&gt;" style="html=1;verticalAlign=bottom;endArrow=block;curved=0;rounded=0;" parent="1" source="w4r3nTZgT-towj5L5SoX-58" target="w4r3nTZgT-towj5L5SoX-59" edge="1">
          <mxGeometry x="-0.0014" width="80" relative="1" as="geometry">
            <mxPoint x="1428.5" y="142" as="sourcePoint" />
            <mxPoint x="1608.5" y="142" as="targetPoint" />
            <Array as="points">
              <mxPoint x="1451" y="142" />
            </Array>
            <mxPoint as="offset" />
          </mxGeometry>
        </mxCell>
        <mxCell id="w4r3nTZgT-towj5L5SoX-87" value="&lt;font style=&quot;font-size: 8px;&quot;&gt;while&lt;/font&gt;" style="shape=umlFrame;whiteSpace=wrap;html=1;pointerEvents=0;recursiveResize=0;container=1;collapsible=0;width=35;height=20;" parent="1" vertex="1">
          <mxGeometry x="1368.5" y="605" width="710" height="370" as="geometry" />
        </mxCell>
        <mxCell id="w4r3nTZgT-towj5L5SoX-88" value="&lt;font style=&quot;font-size: 8px;&quot;&gt;Нажатие кнопки &quot;Подтвердить&quot;&lt;/font&gt;" style="html=1;verticalAlign=bottom;endArrow=block;curved=0;rounded=0;" parent="w4r3nTZgT-towj5L5SoX-87" edge="1">
          <mxGeometry x="0.0016" width="80" relative="1" as="geometry">
            <mxPoint x="52.00000000000023" y="65" as="sourcePoint" />
            <mxPoint x="260" y="65" as="targetPoint" />
            <mxPoint as="offset" />
          </mxGeometry>
        </mxCell>
        <mxCell id="w4r3nTZgT-towj5L5SoX-89" value="&lt;font style=&quot;font-size: 8px;&quot;&gt;Запрос на подтверждение кода&lt;/font&gt;" style="html=1;verticalAlign=bottom;endArrow=block;curved=0;rounded=0;" parent="w4r3nTZgT-towj5L5SoX-87" edge="1">
          <mxGeometry x="-0.0244" width="80" relative="1" as="geometry">
            <mxPoint x="270" y="69.76" as="sourcePoint" />
            <mxPoint x="475" y="69.76" as="targetPoint" />
            <Array as="points">
              <mxPoint x="300" y="69.76" />
            </Array>
            <mxPoint as="offset" />
          </mxGeometry>
        </mxCell>
        <mxCell id="w4r3nTZgT-towj5L5SoX-91" value="&lt;span style=&quot;font-size: 8px; background-color: rgb(255, 255, 255);&quot;&gt;[пользователь не закрыл окно или ошибка при запросе]&lt;/span&gt;" style="text;html=1;align=center;verticalAlign=middle;resizable=0;points=[];autosize=1;strokeColor=none;fillColor=none;" parent="w4r3nTZgT-towj5L5SoX-87" vertex="1">
          <mxGeometry x="40" y="-10" width="230" height="30" as="geometry" />
        </mxCell>
        <mxCell id="w4r3nTZgT-towj5L5SoX-92" value="&lt;font style=&quot;font-size: 8px;&quot;&gt;Ввод кода подтверждения&lt;/font&gt;" style="html=1;verticalAlign=bottom;endArrow=block;curved=0;rounded=0;" parent="w4r3nTZgT-towj5L5SoX-87" edge="1">
          <mxGeometry x="-0.0004" width="80" relative="1" as="geometry">
            <mxPoint x="52.00000000000023" y="45" as="sourcePoint" />
            <mxPoint x="260" y="45" as="targetPoint" />
            <mxPoint as="offset" />
          </mxGeometry>
        </mxCell>
        <mxCell id="w4r3nTZgT-towj5L5SoX-93" value="" style="html=1;points=[[0,0,0,0,5],[0,1,0,0,-5],[1,0,0,0,5],[1,1,0,0,-5]];perimeter=orthogonalPerimeter;outlineConnect=0;targetShapes=umlLifeline;portConstraint=eastwest;newEdgeStyle={&quot;curved&quot;:0,&quot;rounded&quot;:0};" parent="w4r3nTZgT-towj5L5SoX-87" vertex="1">
          <mxGeometry x="260" y="30" width="10" height="330" as="geometry" />
        </mxCell>
        <mxCell id="w4r3nTZgT-towj5L5SoX-94" value="" style="html=1;points=[[0,0,0,0,5],[0,1,0,0,-5],[1,0,0,0,5],[1,1,0,0,-5]];perimeter=orthogonalPerimeter;outlineConnect=0;targetShapes=umlLifeline;portConstraint=eastwest;newEdgeStyle={&quot;curved&quot;:0,&quot;rounded&quot;:0};" parent="w4r3nTZgT-towj5L5SoX-87" vertex="1">
          <mxGeometry x="475" y="60" width="10" height="190" as="geometry" />
        </mxCell>
        <mxCell id="w4r3nTZgT-towj5L5SoX-95" value="&lt;span style=&quot;font-size: 8px;&quot;&gt;Запрос на получение кода по почте&lt;/span&gt;" style="html=1;verticalAlign=bottom;endArrow=block;curved=0;rounded=0;" parent="w4r3nTZgT-towj5L5SoX-87" edge="1">
          <mxGeometry width="80" relative="1" as="geometry">
            <mxPoint x="485" y="80" as="sourcePoint" />
            <mxPoint x="685" y="80" as="targetPoint" />
          </mxGeometry>
        </mxCell>
        <mxCell id="w4r3nTZgT-towj5L5SoX-96" value="&lt;span style=&quot;font-size: 8px;&quot;&gt;Возвращение кода&lt;/span&gt;" style="html=1;verticalAlign=bottom;endArrow=open;dashed=1;endSize=8;curved=0;rounded=0;" parent="w4r3nTZgT-towj5L5SoX-87" edge="1">
          <mxGeometry relative="1" as="geometry">
            <mxPoint x="685" y="99.83999999999992" as="sourcePoint" />
            <mxPoint x="485" y="99.83999999999992" as="targetPoint" />
          </mxGeometry>
        </mxCell>
        <mxCell id="w4r3nTZgT-towj5L5SoX-97" value="&lt;font style=&quot;font-size: 8px;&quot;&gt;Сравнение кодов&lt;/font&gt;" style="html=1;align=left;spacingLeft=2;endArrow=block;rounded=0;edgeStyle=orthogonalEdgeStyle;curved=0;rounded=0;" parent="w4r3nTZgT-towj5L5SoX-87" source="w4r3nTZgT-towj5L5SoX-94" target="w4r3nTZgT-towj5L5SoX-94" edge="1">
          <mxGeometry relative="1" as="geometry">
            <mxPoint x="500" y="110.01999999999998" as="sourcePoint" />
            <Array as="points">
              <mxPoint x="500" y="110" />
              <mxPoint x="500" y="140" />
            </Array>
            <mxPoint x="505" y="140.01639344262298" as="targetPoint" />
          </mxGeometry>
        </mxCell>
        <mxCell id="w4r3nTZgT-towj5L5SoX-98" value="" style="html=1;points=[[0,0,0,0,5],[0,1,0,0,-5],[1,0,0,0,5],[1,1,0,0,-5]];perimeter=orthogonalPerimeter;outlineConnect=0;targetShapes=umlLifeline;portConstraint=eastwest;newEdgeStyle={&quot;curved&quot;:0,&quot;rounded&quot;:0};" parent="w4r3nTZgT-towj5L5SoX-87" vertex="1">
          <mxGeometry x="685" y="70" width="10" height="40" as="geometry" />
        </mxCell>
        <mxCell id="w4r3nTZgT-towj5L5SoX-99" value="&lt;span style=&quot;font-size: 8px;&quot;&gt;alt&lt;/span&gt;" style="shape=umlFrame;whiteSpace=wrap;html=1;pointerEvents=0;recursiveResize=0;container=1;collapsible=0;width=30;height=20;" parent="w4r3nTZgT-towj5L5SoX-87" vertex="1">
          <mxGeometry x="220" y="150" width="280" height="90" as="geometry" />
        </mxCell>
        <mxCell id="w4r3nTZgT-towj5L5SoX-100" value="&lt;font style=&quot;font-size: 8px;&quot;&gt;[Совпадение кодов]&lt;/font&gt;" style="text;html=1;align=center;" parent="w4r3nTZgT-towj5L5SoX-99" vertex="1">
          <mxGeometry width="100" height="20" relative="1" as="geometry">
            <mxPoint x="85" y="-10" as="offset" />
          </mxGeometry>
        </mxCell>
        <mxCell id="w4r3nTZgT-towj5L5SoX-101" value="" style="line;strokeWidth=1;dashed=1;labelPosition=center;verticalLabelPosition=bottom;align=center;verticalAlign=top;spacingLeft=20;spacingTop=15;html=1;whiteSpace=wrap;" parent="w4r3nTZgT-towj5L5SoX-99" vertex="1">
          <mxGeometry y="40" width="280" height="10" as="geometry" />
        </mxCell>
        <mxCell id="w4r3nTZgT-towj5L5SoX-102" value="&lt;font style=&quot;font-size: 8px;&quot;&gt;[Коды не совпали]&lt;/font&gt;" style="text;html=1;align=center;" parent="w4r3nTZgT-towj5L5SoX-99" vertex="1">
          <mxGeometry x="84.99999999999989" y="40" width="100" height="20" as="geometry" />
        </mxCell>
        <mxCell id="w4r3nTZgT-towj5L5SoX-103" value="&lt;span style=&quot;font-size: 8px;&quot;&gt;Успешный ответ&lt;/span&gt;" style="html=1;verticalAlign=bottom;endArrow=open;dashed=1;endSize=8;curved=0;rounded=0;" parent="w4r3nTZgT-towj5L5SoX-99" edge="1">
          <mxGeometry x="0.0016" relative="1" as="geometry">
            <mxPoint x="255" y="30.000000000000014" as="sourcePoint" />
            <mxPoint x="50" y="30.000000000000014" as="targetPoint" />
            <mxPoint as="offset" />
          </mxGeometry>
        </mxCell>
        <mxCell id="w4r3nTZgT-towj5L5SoX-104" value="&lt;span style=&quot;font-size: 8px;&quot;&gt;Ответ с ошибкой&lt;/span&gt;" style="html=1;verticalAlign=bottom;endArrow=open;dashed=1;endSize=8;curved=0;rounded=0;" parent="w4r3nTZgT-towj5L5SoX-99" edge="1">
          <mxGeometry x="-0.0017" relative="1" as="geometry">
            <mxPoint x="255" y="80" as="sourcePoint" />
            <mxPoint x="50" y="80" as="targetPoint" />
            <mxPoint as="offset" />
          </mxGeometry>
        </mxCell>
        <mxCell id="w4r3nTZgT-towj5L5SoX-105" value="" style="html=1;points=[[0,0,0,0,5],[0,1,0,0,-5],[1,0,0,0,5],[1,1,0,0,-5]];perimeter=orthogonalPerimeter;outlineConnect=0;targetShapes=umlLifeline;portConstraint=eastwest;newEdgeStyle={&quot;curved&quot;:0,&quot;rounded&quot;:0};" parent="w4r3nTZgT-towj5L5SoX-87" vertex="1">
          <mxGeometry x="42" y="30" width="10" height="330" as="geometry" />
        </mxCell>
        <mxCell id="w4r3nTZgT-towj5L5SoX-106" value="&lt;span style=&quot;font-size: 8px;&quot;&gt;alt&lt;/span&gt;" style="shape=umlFrame;whiteSpace=wrap;html=1;pointerEvents=0;recursiveResize=0;container=1;collapsible=0;width=30;height=20;" parent="w4r3nTZgT-towj5L5SoX-87" vertex="1">
          <mxGeometry x="10" y="250" width="270" height="100" as="geometry" />
        </mxCell>
        <mxCell id="w4r3nTZgT-towj5L5SoX-107" value="&lt;font style=&quot;font-size: 8px;&quot;&gt;[success]&lt;/font&gt;" style="text;html=1;align=center;" parent="w4r3nTZgT-towj5L5SoX-106" vertex="1">
          <mxGeometry width="100" height="20" relative="1" as="geometry">
            <mxPoint x="85" y="-10" as="offset" />
          </mxGeometry>
        </mxCell>
        <mxCell id="w4r3nTZgT-towj5L5SoX-108" value="" style="line;strokeWidth=1;dashed=1;labelPosition=center;verticalLabelPosition=bottom;align=center;verticalAlign=top;spacingLeft=20;spacingTop=15;html=1;whiteSpace=wrap;" parent="w4r3nTZgT-towj5L5SoX-106" vertex="1">
          <mxGeometry y="40" width="270" height="10" as="geometry" />
        </mxCell>
        <mxCell id="w4r3nTZgT-towj5L5SoX-109" value="&lt;font style=&quot;font-size: 8px;&quot;&gt;[error]&lt;/font&gt;" style="text;html=1;align=center;" parent="w4r3nTZgT-towj5L5SoX-106" vertex="1">
          <mxGeometry x="84.99999999999989" y="40" width="100" height="20" as="geometry" />
        </mxCell>
        <mxCell id="w4r3nTZgT-towj5L5SoX-110" value="&lt;font style=&quot;font-size: 8px;&quot;&gt;Отображение страницы ввода нового пароля&lt;/font&gt;" style="html=1;verticalAlign=bottom;endArrow=open;dashed=1;endSize=8;curved=0;rounded=0;" parent="w4r3nTZgT-towj5L5SoX-106" target="w4r3nTZgT-towj5L5SoX-105" edge="1">
          <mxGeometry x="0.0052" relative="1" as="geometry">
            <mxPoint x="250" y="30" as="sourcePoint" />
            <mxPoint x="45" y="30" as="targetPoint" />
            <mxPoint as="offset" />
          </mxGeometry>
        </mxCell>
        <mxCell id="w4r3nTZgT-towj5L5SoX-111" value="&lt;font style=&quot;font-size: 8px;&quot;&gt;Отображение всплывающей ошибки&lt;/font&gt;" style="html=1;verticalAlign=bottom;endArrow=open;dashed=1;endSize=8;curved=0;rounded=0;" parent="w4r3nTZgT-towj5L5SoX-106" target="w4r3nTZgT-towj5L5SoX-105" edge="1">
          <mxGeometry relative="1" as="geometry">
            <mxPoint x="250" y="80" as="sourcePoint" />
            <mxPoint x="45" y="80" as="targetPoint" />
          </mxGeometry>
        </mxCell>
        <mxCell id="w4r3nTZgT-towj5L5SoX-112" value="&lt;font style=&quot;font-size: 8px;&quot;&gt;while&lt;/font&gt;" style="shape=umlFrame;whiteSpace=wrap;html=1;pointerEvents=0;recursiveResize=0;container=1;collapsible=0;width=35;height=20;" parent="1" vertex="1">
          <mxGeometry x="1368.5" y="995" width="710" height="270" as="geometry" />
        </mxCell>
        <mxCell id="w4r3nTZgT-towj5L5SoX-113" value="&lt;font style=&quot;font-size: 8px;&quot;&gt;Нажатие кнопки &quot;Сменить пароль&quot;&lt;/font&gt;" style="html=1;verticalAlign=bottom;endArrow=block;curved=0;rounded=0;" parent="w4r3nTZgT-towj5L5SoX-112" source="w4r3nTZgT-towj5L5SoX-123" edge="1">
          <mxGeometry x="0.0016" width="80" relative="1" as="geometry">
            <mxPoint x="55" y="89.8" as="sourcePoint" />
            <mxPoint x="260" y="89.8" as="targetPoint" />
            <mxPoint as="offset" />
          </mxGeometry>
        </mxCell>
        <mxCell id="w4r3nTZgT-towj5L5SoX-114" value="&lt;font style=&quot;font-size: 8px;&quot;&gt;Запрос на смену пароля&lt;/font&gt;" style="html=1;verticalAlign=bottom;endArrow=block;curved=0;rounded=0;" parent="w4r3nTZgT-towj5L5SoX-112" target="w4r3nTZgT-towj5L5SoX-119" edge="1">
          <mxGeometry x="-0.0244" width="80" relative="1" as="geometry">
            <mxPoint x="270" y="100.00000000000001" as="sourcePoint" />
            <mxPoint x="461.5" y="100" as="targetPoint" />
            <Array as="points">
              <mxPoint x="300" y="100.00000000000001" />
            </Array>
            <mxPoint as="offset" />
          </mxGeometry>
        </mxCell>
        <mxCell id="w4r3nTZgT-towj5L5SoX-116" value="&lt;span style=&quot;font-size: 8px; background-color: rgb(255, 255, 255);&quot;&gt;[пользователь не закрыл окно или ошибка при запросе]&lt;/span&gt;" style="text;html=1;align=center;verticalAlign=middle;resizable=0;points=[];autosize=1;strokeColor=none;fillColor=none;" parent="w4r3nTZgT-towj5L5SoX-112" vertex="1">
          <mxGeometry x="40" y="-10" width="230" height="30" as="geometry" />
        </mxCell>
        <mxCell id="w4r3nTZgT-towj5L5SoX-117" value="&lt;font style=&quot;font-size: 8px;&quot;&gt;Ввод нового пароля&lt;/font&gt;" style="html=1;verticalAlign=bottom;endArrow=block;curved=0;rounded=0;" parent="w4r3nTZgT-towj5L5SoX-112" edge="1">
          <mxGeometry x="-0.0004" width="80" relative="1" as="geometry">
            <mxPoint x="52" y="45" as="sourcePoint" />
            <mxPoint x="260" y="45" as="targetPoint" />
            <mxPoint as="offset" />
          </mxGeometry>
        </mxCell>
        <mxCell id="w4r3nTZgT-towj5L5SoX-118" value="" style="html=1;points=[[0,0,0,0,5],[0,1,0,0,-5],[1,0,0,0,5],[1,1,0,0,-5]];perimeter=orthogonalPerimeter;outlineConnect=0;targetShapes=umlLifeline;portConstraint=eastwest;newEdgeStyle={&quot;curved&quot;:0,&quot;rounded&quot;:0};" parent="w4r3nTZgT-towj5L5SoX-112" vertex="1">
          <mxGeometry x="260" y="30" width="10" height="230" as="geometry" />
        </mxCell>
        <mxCell id="w4r3nTZgT-towj5L5SoX-123" value="" style="html=1;points=[[0,0,0,0,5],[0,1,0,0,-5],[1,0,0,0,5],[1,1,0,0,-5]];perimeter=orthogonalPerimeter;outlineConnect=0;targetShapes=umlLifeline;portConstraint=eastwest;newEdgeStyle={&quot;curved&quot;:0,&quot;rounded&quot;:0};" parent="w4r3nTZgT-towj5L5SoX-112" vertex="1">
          <mxGeometry x="42" y="30" width="10" height="230" as="geometry" />
        </mxCell>
        <mxCell id="w4r3nTZgT-towj5L5SoX-124" value="&lt;font style=&quot;font-size: 8px;&quot;&gt;Валидация пароля&lt;/font&gt;" style="html=1;align=left;spacingLeft=2;endArrow=block;rounded=0;edgeStyle=orthogonalEdgeStyle;curved=0;rounded=0;" parent="w4r3nTZgT-towj5L5SoX-112" source="w4r3nTZgT-towj5L5SoX-123" target="w4r3nTZgT-towj5L5SoX-123" edge="1">
          <mxGeometry relative="1" as="geometry">
            <mxPoint x="80" y="50" as="sourcePoint" />
            <Array as="points">
              <mxPoint x="70" y="50" />
              <mxPoint x="70" y="80" />
            </Array>
            <mxPoint x="85" y="80" as="targetPoint" />
          </mxGeometry>
        </mxCell>
        <mxCell id="w4r3nTZgT-towj5L5SoX-126" value="&lt;span style=&quot;font-size: 8px;&quot;&gt;alt&lt;/span&gt;" style="shape=umlFrame;whiteSpace=wrap;html=1;pointerEvents=0;recursiveResize=0;container=1;collapsible=0;width=30;height=20;" parent="w4r3nTZgT-towj5L5SoX-112" vertex="1">
          <mxGeometry x="10" y="160" width="270" height="90" as="geometry" />
        </mxCell>
        <mxCell id="w4r3nTZgT-towj5L5SoX-127" value="&lt;font style=&quot;font-size: 8px;&quot;&gt;[success]&lt;/font&gt;" style="text;html=1;align=center;" parent="w4r3nTZgT-towj5L5SoX-126" vertex="1">
          <mxGeometry width="100" height="20" relative="1" as="geometry">
            <mxPoint x="85" y="-10" as="offset" />
          </mxGeometry>
        </mxCell>
        <mxCell id="w4r3nTZgT-towj5L5SoX-128" value="" style="line;strokeWidth=1;dashed=1;labelPosition=center;verticalLabelPosition=bottom;align=center;verticalAlign=top;spacingLeft=20;spacingTop=15;html=1;whiteSpace=wrap;" parent="w4r3nTZgT-towj5L5SoX-126" vertex="1">
          <mxGeometry y="40" width="270" height="10" as="geometry" />
        </mxCell>
        <mxCell id="w4r3nTZgT-towj5L5SoX-129" value="&lt;font style=&quot;font-size: 8px;&quot;&gt;[error]&lt;/font&gt;" style="text;html=1;align=center;" parent="w4r3nTZgT-towj5L5SoX-126" vertex="1">
          <mxGeometry x="84.99999999999989" y="40" width="100" height="20" as="geometry" />
        </mxCell>
        <mxCell id="w4r3nTZgT-towj5L5SoX-130" value="&lt;font style=&quot;font-size: 8px;&quot;&gt;Отображение страницы авторизации&lt;/font&gt;" style="html=1;verticalAlign=bottom;endArrow=open;dashed=1;endSize=8;curved=0;rounded=0;" parent="w4r3nTZgT-towj5L5SoX-126" target="w4r3nTZgT-towj5L5SoX-123" edge="1">
          <mxGeometry x="0.0052" relative="1" as="geometry">
            <mxPoint x="250" y="30" as="sourcePoint" />
            <mxPoint x="45" y="30" as="targetPoint" />
            <mxPoint as="offset" />
          </mxGeometry>
        </mxCell>
        <mxCell id="w4r3nTZgT-towj5L5SoX-131" value="&lt;font style=&quot;font-size: 8px;&quot;&gt;Отображение всплывающей ошибки&lt;/font&gt;" style="html=1;verticalAlign=bottom;endArrow=open;dashed=1;endSize=8;curved=0;rounded=0;" parent="w4r3nTZgT-towj5L5SoX-126" target="w4r3nTZgT-towj5L5SoX-123" edge="1">
          <mxGeometry relative="1" as="geometry">
            <mxPoint x="250" y="80" as="sourcePoint" />
            <mxPoint x="45" y="80" as="targetPoint" />
          </mxGeometry>
        </mxCell>
        <mxCell id="w4r3nTZgT-towj5L5SoX-65" value="&lt;font style=&quot;font-size: 8px;&quot;&gt;Нажатие кнопки &quot;Отправить код&quot;&lt;/font&gt;" style="html=1;verticalAlign=bottom;endArrow=block;curved=0;rounded=0;" parent="1" source="w4r3nTZgT-towj5L5SoX-58" edge="1">
          <mxGeometry x="0.0016" width="80" relative="1" as="geometry">
            <mxPoint x="1423.4999999999998" y="232" as="sourcePoint" />
            <mxPoint x="1628.5" y="232" as="targetPoint" />
            <mxPoint as="offset" />
          </mxGeometry>
        </mxCell>
        <mxCell id="w4r3nTZgT-towj5L5SoX-66" value="&lt;span style=&quot;font-size: 8px;&quot;&gt;alt&lt;/span&gt;" style="shape=umlFrame;whiteSpace=wrap;html=1;pointerEvents=0;recursiveResize=0;container=1;collapsible=0;width=30;height=20;" parent="1" vertex="1">
          <mxGeometry x="1376" y="450" width="270" height="100" as="geometry" />
        </mxCell>
        <mxCell id="w4r3nTZgT-towj5L5SoX-67" value="&lt;font style=&quot;font-size: 8px;&quot;&gt;[success]&lt;/font&gt;" style="text;html=1;align=center;" parent="w4r3nTZgT-towj5L5SoX-66" vertex="1">
          <mxGeometry width="100" height="20" relative="1" as="geometry">
            <mxPoint x="85" as="offset" />
          </mxGeometry>
        </mxCell>
        <mxCell id="w4r3nTZgT-towj5L5SoX-68" value="" style="line;strokeWidth=1;dashed=1;labelPosition=center;verticalLabelPosition=bottom;align=center;verticalAlign=top;spacingLeft=20;spacingTop=15;html=1;whiteSpace=wrap;" parent="w4r3nTZgT-towj5L5SoX-66" vertex="1">
          <mxGeometry y="50" width="270" height="10" as="geometry" />
        </mxCell>
        <mxCell id="w4r3nTZgT-towj5L5SoX-69" value="&lt;font style=&quot;font-size: 8px;&quot;&gt;[error]&lt;/font&gt;" style="text;html=1;align=center;" parent="w4r3nTZgT-towj5L5SoX-66" vertex="1">
          <mxGeometry x="84.99999999999989" y="50" width="100" height="20" as="geometry" />
        </mxCell>
        <mxCell id="w4r3nTZgT-towj5L5SoX-70" value="&lt;font style=&quot;font-size: 8px;&quot;&gt;Отображение страницы подтверждения&lt;/font&gt;" style="html=1;verticalAlign=bottom;endArrow=open;dashed=1;endSize=8;curved=0;rounded=0;" parent="w4r3nTZgT-towj5L5SoX-66" target="w4r3nTZgT-towj5L5SoX-58" edge="1">
          <mxGeometry x="0.0025" relative="1" as="geometry">
            <mxPoint x="252" y="40" as="sourcePoint" />
            <mxPoint x="54" y="40" as="targetPoint" />
            <mxPoint as="offset" />
          </mxGeometry>
        </mxCell>
        <mxCell id="w4r3nTZgT-towj5L5SoX-71" value="&lt;font style=&quot;font-size: 8px;&quot;&gt;Отображение всплывающей ошибки&lt;/font&gt;" style="html=1;verticalAlign=bottom;endArrow=open;dashed=1;endSize=8;curved=0;rounded=0;" parent="w4r3nTZgT-towj5L5SoX-66" target="w4r3nTZgT-towj5L5SoX-58" edge="1">
          <mxGeometry relative="1" as="geometry">
            <mxPoint x="252" y="90" as="sourcePoint" />
            <mxPoint x="54" y="90" as="targetPoint" />
          </mxGeometry>
        </mxCell>
        <mxCell id="w4r3nTZgT-towj5L5SoX-72" value="&lt;span style=&quot;font-size: 8px;&quot;&gt;alt&lt;/span&gt;" style="shape=umlFrame;whiteSpace=wrap;html=1;pointerEvents=0;recursiveResize=0;container=1;collapsible=0;width=30;height=20;" parent="1" vertex="1">
          <mxGeometry x="1588.5" y="290" width="481.5" height="140" as="geometry" />
        </mxCell>
        <mxCell id="w4r3nTZgT-towj5L5SoX-73" value="&lt;font style=&quot;font-size: 8px;&quot;&gt;[Пользователь с почтой существует]&lt;/font&gt;" style="text;html=1;align=center;" parent="w4r3nTZgT-towj5L5SoX-72" vertex="1">
          <mxGeometry width="100" height="20" relative="1" as="geometry">
            <mxPoint x="85" y="-10" as="offset" />
          </mxGeometry>
        </mxCell>
        <mxCell id="w4r3nTZgT-towj5L5SoX-74" value="" style="line;strokeWidth=1;dashed=1;labelPosition=center;verticalLabelPosition=bottom;align=center;verticalAlign=top;spacingLeft=20;spacingTop=15;html=1;whiteSpace=wrap;" parent="w4r3nTZgT-towj5L5SoX-72" vertex="1">
          <mxGeometry y="90" width="480" height="10" as="geometry" />
        </mxCell>
        <mxCell id="w4r3nTZgT-towj5L5SoX-75" value="&lt;font style=&quot;font-size: 8px;&quot;&gt;[Пользователя не существует]&lt;/font&gt;" style="text;html=1;align=center;" parent="w4r3nTZgT-towj5L5SoX-72" vertex="1">
          <mxGeometry x="89.99999999999989" y="90" width="100" height="20" as="geometry" />
        </mxCell>
        <mxCell id="w4r3nTZgT-towj5L5SoX-76" value="&lt;span style=&quot;font-size: 8px;&quot;&gt;Успешный ответ&lt;/span&gt;" style="html=1;verticalAlign=bottom;endArrow=open;dashed=1;endSize=8;curved=0;rounded=0;" parent="w4r3nTZgT-towj5L5SoX-72" edge="1">
          <mxGeometry x="0.0016" relative="1" as="geometry">
            <mxPoint x="255" y="80.00000000000001" as="sourcePoint" />
            <mxPoint x="50" y="80.00000000000001" as="targetPoint" />
            <mxPoint as="offset" />
          </mxGeometry>
        </mxCell>
        <mxCell id="w4r3nTZgT-towj5L5SoX-77" value="&lt;span style=&quot;font-size: 8px;&quot;&gt;Ответ с ошибкой&lt;/span&gt;" style="html=1;verticalAlign=bottom;endArrow=open;dashed=1;endSize=8;curved=0;rounded=0;" parent="w4r3nTZgT-towj5L5SoX-72" edge="1">
          <mxGeometry x="-0.0017" relative="1" as="geometry">
            <mxPoint x="255" y="130" as="sourcePoint" />
            <mxPoint x="50" y="130" as="targetPoint" />
            <mxPoint as="offset" />
          </mxGeometry>
        </mxCell>
        <mxCell id="w4r3nTZgT-towj5L5SoX-61" value="&lt;div&gt;&lt;span style=&quot;font-size: 8px;&quot;&gt;Отправка&lt;/span&gt;&lt;/div&gt;&lt;div&gt;&lt;span style=&quot;font-size: 8px;&quot;&gt;кода на почту&lt;/span&gt;&lt;/div&gt;" style="html=1;align=left;spacingLeft=2;endArrow=block;rounded=0;edgeStyle=orthogonalEdgeStyle;curved=0;rounded=0;" parent="w4r3nTZgT-towj5L5SoX-72" edge="1">
          <mxGeometry x="-0.0497" y="4" relative="1" as="geometry">
            <mxPoint x="262.5" y="6.5" as="sourcePoint" />
            <Array as="points">
              <mxPoint x="277.5" y="6.5" />
              <mxPoint x="277.5" y="36.5" />
            </Array>
            <mxPoint x="262.5" y="36.5" as="targetPoint" />
            <mxPoint as="offset" />
          </mxGeometry>
        </mxCell>
        <mxCell id="w4r3nTZgT-towj5L5SoX-60" value="" style="html=1;points=[[0,0,0,0,5],[0,1,0,0,-5],[1,0,0,0,5],[1,1,0,0,-5]];perimeter=orthogonalPerimeter;outlineConnect=0;targetShapes=umlLifeline;portConstraint=eastwest;newEdgeStyle={&quot;curved&quot;:0,&quot;rounded&quot;:0};" parent="w4r3nTZgT-towj5L5SoX-72" vertex="1">
          <mxGeometry x="252.5" y="-60" width="10" height="200" as="geometry" />
        </mxCell>
        <mxCell id="w4r3nTZgT-towj5L5SoX-79" value="&lt;font style=&quot;font-size: 8px;&quot;&gt;Запрос на отправку кода&lt;/font&gt;" style="html=1;verticalAlign=bottom;endArrow=block;curved=0;rounded=0;" parent="1" edge="1">
          <mxGeometry x="0.0005" width="80" relative="1" as="geometry">
            <mxPoint x="1638.5" y="240" as="sourcePoint" />
            <mxPoint x="1843.5" y="240" as="targetPoint" />
            <Array as="points">
              <mxPoint x="1668.5" y="240" />
            </Array>
            <mxPoint as="offset" />
          </mxGeometry>
        </mxCell>
        <mxCell id="w4r3nTZgT-towj5L5SoX-81" value="&lt;font style=&quot;font-size: 8px;&quot;&gt;Отображение страницы ввода почты&lt;/font&gt;" style="html=1;verticalAlign=bottom;endArrow=open;dashed=1;endSize=8;curved=0;rounded=0;" parent="1" target="w4r3nTZgT-towj5L5SoX-58" edge="1">
          <mxGeometry relative="1" as="geometry">
            <mxPoint x="1628.5" y="162" as="sourcePoint" />
            <mxPoint x="1448.5" y="162" as="targetPoint" />
            <Array as="points">
              <mxPoint x="1623.5" y="162" />
            </Array>
          </mxGeometry>
        </mxCell>
        <mxCell id="w4r3nTZgT-towj5L5SoX-83" value="&lt;font style=&quot;font-size: 8px;&quot;&gt;Ввод почты&lt;/font&gt;" style="html=1;verticalAlign=bottom;endArrow=block;curved=0;rounded=0;" parent="1" source="w4r3nTZgT-towj5L5SoX-58" edge="1">
          <mxGeometry x="0.0016" width="80" relative="1" as="geometry">
            <mxPoint x="1430" y="213" as="sourcePoint" />
            <mxPoint x="1628.5" y="213" as="targetPoint" />
            <mxPoint as="offset" />
          </mxGeometry>
        </mxCell>
        <mxCell id="w4r3nTZgT-towj5L5SoX-84" value="&lt;span style=&quot;font-size: 8px;&quot;&gt;Запрос на получение пользователя&lt;/span&gt;&lt;div&gt;&lt;span style=&quot;font-size: 8px;&quot;&gt;с данной почтой&lt;/span&gt;&lt;/div&gt;" style="html=1;verticalAlign=bottom;endArrow=block;curved=0;rounded=0;" parent="1" edge="1">
          <mxGeometry width="80" relative="1" as="geometry">
            <mxPoint x="1851" y="250" as="sourcePoint" />
            <mxPoint x="2051" y="250" as="targetPoint" />
          </mxGeometry>
        </mxCell>
        <mxCell id="w4r3nTZgT-towj5L5SoX-85" value="&lt;font style=&quot;font-size: 8px;&quot;&gt;Ответ на запрос&lt;/font&gt;" style="html=1;verticalAlign=bottom;endArrow=open;dashed=1;endSize=8;curved=0;rounded=0;" parent="1" edge="1">
          <mxGeometry relative="1" as="geometry">
            <mxPoint x="2051" y="270" as="sourcePoint" />
            <mxPoint x="1851" y="270" as="targetPoint" />
          </mxGeometry>
        </mxCell>
        <mxCell id="w4r3nTZgT-towj5L5SoX-82" value="&lt;span style=&quot;font-size: 8px;&quot;&gt;[пользователь не закрыл окно или ошибка при запросе]&lt;/span&gt;" style="text;html=1;align=center;verticalAlign=middle;resizable=0;points=[];autosize=1;strokeColor=none;fillColor=none;labelBackgroundColor=default;" parent="1" vertex="1">
          <mxGeometry x="1416" y="170" width="230" height="30" as="geometry" />
        </mxCell>
        <mxCell id="mN4S2yNRlESzcMTuaKe_-1" value=":База данных" style="shape=umlLifeline;perimeter=lifelinePerimeter;whiteSpace=wrap;html=1;container=1;dropTarget=0;collapsible=0;recursiveResize=0;outlineConnect=0;portConstraint=eastwest;newEdgeStyle={&quot;curved&quot;:0,&quot;rounded&quot;:0};" parent="1" vertex="1">
          <mxGeometry x="4727.5" y="40" width="100" height="360" as="geometry" />
        </mxCell>
        <mxCell id="mN4S2yNRlESzcMTuaKe_-90" value="" style="html=1;points=[[0,0,0,0,5],[0,1,0,0,-5],[1,0,0,0,5],[1,1,0,0,-5]];perimeter=orthogonalPerimeter;outlineConnect=0;targetShapes=umlLifeline;portConstraint=eastwest;newEdgeStyle={&quot;curved&quot;:0,&quot;rounded&quot;:0};" parent="mN4S2yNRlESzcMTuaKe_-1" vertex="1">
          <mxGeometry x="45" y="85" width="10" height="215" as="geometry" />
        </mxCell>
        <mxCell id="mN4S2yNRlESzcMTuaKe_-3" value=":Сервер" style="shape=umlLifeline;perimeter=lifelinePerimeter;whiteSpace=wrap;html=1;container=1;dropTarget=0;collapsible=0;recursiveResize=0;outlineConnect=0;portConstraint=eastwest;newEdgeStyle={&quot;curved&quot;:0,&quot;rounded&quot;:0};" parent="1" vertex="1">
          <mxGeometry x="4517.5" y="40" width="100" height="360" as="geometry" />
        </mxCell>
        <mxCell id="mN4S2yNRlESzcMTuaKe_-89" value="" style="html=1;points=[[0,0,0,0,5],[0,1,0,0,-5],[1,0,0,0,5],[1,1,0,0,-5]];perimeter=orthogonalPerimeter;outlineConnect=0;targetShapes=umlLifeline;portConstraint=eastwest;newEdgeStyle={&quot;curved&quot;:0,&quot;rounded&quot;:0};" parent="mN4S2yNRlESzcMTuaKe_-3" vertex="1">
          <mxGeometry x="45" y="85" width="10" height="225" as="geometry" />
        </mxCell>
        <mxCell id="mN4S2yNRlESzcMTuaKe_-4" value="&lt;div&gt;&lt;br&gt;&lt;/div&gt;" style="shape=umlLifeline;perimeter=lifelinePerimeter;whiteSpace=wrap;html=1;container=1;dropTarget=0;collapsible=0;recursiveResize=0;outlineConnect=0;portConstraint=eastwest;newEdgeStyle={&quot;curved&quot;:0,&quot;rounded&quot;:0};participant=umlActor;" parent="1" vertex="1">
          <mxGeometry x="4127.5" y="40" width="20" height="360" as="geometry" />
        </mxCell>
        <mxCell id="mN4S2yNRlESzcMTuaKe_-84" value="" style="html=1;points=[[0,0,0,0,5],[0,1,0,0,-5],[1,0,0,0,5],[1,1,0,0,-5]];perimeter=orthogonalPerimeter;outlineConnect=0;targetShapes=umlLifeline;portConstraint=eastwest;newEdgeStyle={&quot;curved&quot;:0,&quot;rounded&quot;:0};" parent="mN4S2yNRlESzcMTuaKe_-4" vertex="1">
          <mxGeometry x="5" y="80" width="10" height="250" as="geometry" />
        </mxCell>
        <mxCell id="mN4S2yNRlESzcMTuaKe_-5" value="&lt;font style=&quot;font-size: 8px;&quot;&gt;Пользователь&lt;/font&gt;" style="text;html=1;align=center;verticalAlign=middle;resizable=0;points=[];autosize=1;strokeColor=none;fillColor=none;" parent="1" vertex="1">
          <mxGeometry x="4097.5" y="80" width="80" height="30" as="geometry" />
        </mxCell>
        <mxCell id="mN4S2yNRlESzcMTuaKe_-6" value=":Клиент" style="shape=umlLifeline;perimeter=lifelinePerimeter;whiteSpace=wrap;html=1;container=0;dropTarget=0;collapsible=0;recursiveResize=0;outlineConnect=0;portConstraint=eastwest;newEdgeStyle={&quot;curved&quot;:0,&quot;rounded&quot;:0};movable=1;resizable=1;rotatable=1;deletable=1;editable=1;locked=0;connectable=1;" parent="1" vertex="1">
          <mxGeometry x="4305" y="45" width="100" height="355" as="geometry" />
        </mxCell>
        <mxCell id="mN4S2yNRlESzcMTuaKe_-87" value="" style="html=1;points=[[0,0,0,0,5],[0,1,0,0,-5],[1,0,0,0,5],[1,1,0,0,-5]];perimeter=orthogonalPerimeter;outlineConnect=0;targetShapes=umlLifeline;portConstraint=eastwest;newEdgeStyle={&quot;curved&quot;:0,&quot;rounded&quot;:0};" parent="mN4S2yNRlESzcMTuaKe_-6" vertex="1">
          <mxGeometry x="45" y="75" width="10" height="255" as="geometry" />
        </mxCell>
        <mxCell id="mN4S2yNRlESzcMTuaKe_-99" value="&lt;font style=&quot;font-size: 8px;&quot;&gt;Валидация данных&lt;/font&gt;" style="html=1;align=left;spacingLeft=2;endArrow=block;rounded=0;edgeStyle=orthogonalEdgeStyle;curved=0;rounded=0;" parent="mN4S2yNRlESzcMTuaKe_-6" edge="1">
          <mxGeometry relative="1" as="geometry">
            <mxPoint x="55.00000000000091" y="195.0000000000001" as="sourcePoint" />
            <Array as="points">
              <mxPoint x="75" y="195" />
              <mxPoint x="75" y="225" />
            </Array>
            <mxPoint x="55.00000000000091" y="225.0000000000001" as="targetPoint" />
          </mxGeometry>
        </mxCell>
        <mxCell id="mN4S2yNRlESzcMTuaKe_-7" value="&lt;font style=&quot;font-size: 8px;&quot;&gt;Пользователь&lt;/font&gt;" style="shape=umlActor;verticalLabelPosition=bottom;verticalAlign=top;html=1;outlineConnect=0;" parent="1" vertex="1">
          <mxGeometry x="4127.5" y="400" width="20" height="40" as="geometry" />
        </mxCell>
        <mxCell id="mN4S2yNRlESzcMTuaKe_-8" value=":Клиент" style="rounded=0;whiteSpace=wrap;html=1;" parent="1" vertex="1">
          <mxGeometry x="4300" y="400" width="105" height="40" as="geometry" />
        </mxCell>
        <mxCell id="mN4S2yNRlESzcMTuaKe_-9" value=":Сервер" style="rounded=0;whiteSpace=wrap;html=1;" parent="1" vertex="1">
          <mxGeometry x="4515" y="400" width="105" height="40" as="geometry" />
        </mxCell>
        <mxCell id="mN4S2yNRlESzcMTuaKe_-10" value=":База данных" style="rounded=0;whiteSpace=wrap;html=1;" parent="1" vertex="1">
          <mxGeometry x="4725" y="400" width="105" height="40" as="geometry" />
        </mxCell>
        <mxCell id="mN4S2yNRlESzcMTuaKe_-13" value="&lt;font size=&quot;1&quot;&gt;Покупка премиума&lt;/font&gt;" style="ellipse;whiteSpace=wrap;html=1;" parent="1" vertex="1">
          <mxGeometry x="3950" y="135" width="120" height="60" as="geometry" />
        </mxCell>
        <mxCell id="mN4S2yNRlESzcMTuaKe_-85" value="&lt;font style=&quot;font-size: 8px;&quot;&gt;&lt;font style=&quot;&quot;&gt;Нажатие кнопки &quot;&lt;/font&gt;&lt;span style=&quot;&quot;&gt;&lt;/span&gt;&lt;span style=&quot;&quot;&gt;&lt;/span&gt;&lt;span style=&quot;white-space: pre-wrap;&quot;&gt;Сделать событие премиальным&quot; на странице своего события&lt;/span&gt;&lt;/font&gt;" style="html=1;verticalAlign=bottom;endArrow=block;curved=0;rounded=0;" parent="1" edge="1">
          <mxGeometry width="80" relative="1" as="geometry">
            <mxPoint x="4143" y="131.52" as="sourcePoint" />
            <mxPoint x="4350.5" y="131.52" as="targetPoint" />
          </mxGeometry>
        </mxCell>
        <mxCell id="mN4S2yNRlESzcMTuaKe_-88" value="&lt;font style=&quot;font-size: 8px;&quot;&gt;Запрос на выставление счета&lt;/font&gt;" style="html=1;verticalAlign=bottom;endArrow=block;curved=0;rounded=0;" parent="1" target="mN4S2yNRlESzcMTuaKe_-89" edge="1">
          <mxGeometry width="80" relative="1" as="geometry">
            <mxPoint x="4360" y="140" as="sourcePoint" />
            <mxPoint x="4440" y="140" as="targetPoint" />
          </mxGeometry>
        </mxCell>
        <mxCell id="mN4S2yNRlESzcMTuaKe_-91" value="&lt;font style=&quot;font-size: 8px;&quot;&gt;Запрос на добавление нового счета&lt;/font&gt;" style="html=1;verticalAlign=bottom;endArrow=block;curved=0;rounded=0;" parent="1" edge="1">
          <mxGeometry width="80" relative="1" as="geometry">
            <mxPoint x="4572.5" y="149.68999999999988" as="sourcePoint" />
            <mxPoint x="4772.5" y="149.68999999999988" as="targetPoint" />
          </mxGeometry>
        </mxCell>
        <mxCell id="mN4S2yNRlESzcMTuaKe_-92" value="&lt;font style=&quot;font-size: 8px;&quot;&gt;Ответ на запрос&lt;/font&gt;" style="html=1;verticalAlign=bottom;endArrow=open;dashed=1;endSize=8;curved=0;rounded=0;" parent="1" edge="1">
          <mxGeometry relative="1" as="geometry">
            <mxPoint x="4772.5" y="169.9999999999999" as="sourcePoint" />
            <mxPoint x="4572.5" y="169.9999999999999" as="targetPoint" />
          </mxGeometry>
        </mxCell>
        <mxCell id="mN4S2yNRlESzcMTuaKe_-95" value="&lt;font style=&quot;font-size: 8px;&quot;&gt;Возвращение id нового счета&lt;/font&gt;" style="html=1;verticalAlign=bottom;endArrow=open;dashed=1;endSize=8;curved=0;rounded=0;" parent="1" edge="1">
          <mxGeometry relative="1" as="geometry">
            <mxPoint x="4561.5" y="178.9999999999999" as="sourcePoint" />
            <mxPoint x="4359" y="178.9999999999999" as="targetPoint" />
          </mxGeometry>
        </mxCell>
        <mxCell id="mN4S2yNRlESzcMTuaKe_-96" value="&lt;font style=&quot;font-size: 8px;&quot;&gt;Отображение страницы оплаты&lt;/font&gt;" style="html=1;verticalAlign=bottom;endArrow=open;dashed=1;endSize=8;curved=0;rounded=0;" parent="1" edge="1">
          <mxGeometry relative="1" as="geometry">
            <mxPoint x="4350" y="189.79" as="sourcePoint" />
            <mxPoint x="4142.5" y="189.78999999999996" as="targetPoint" />
            <mxPoint as="offset" />
          </mxGeometry>
        </mxCell>
        <mxCell id="mN4S2yNRlESzcMTuaKe_-97" value="&lt;font style=&quot;font-size: 8px;&quot;&gt;Ввод данных карты&lt;/font&gt;" style="html=1;verticalAlign=bottom;endArrow=block;curved=0;rounded=0;" parent="1" edge="1">
          <mxGeometry width="80" relative="1" as="geometry">
            <mxPoint x="4142.5" y="210" as="sourcePoint" />
            <mxPoint x="4350" y="210" as="targetPoint" />
          </mxGeometry>
        </mxCell>
        <mxCell id="mN4S2yNRlESzcMTuaKe_-104" value="&lt;font style=&quot;font-size: 8px;&quot;&gt;Нажатие кнопки оплатить&lt;/font&gt;" style="html=1;verticalAlign=bottom;endArrow=block;curved=0;rounded=0;" parent="1" edge="1">
          <mxGeometry width="80" relative="1" as="geometry">
            <mxPoint x="4142.5" y="229" as="sourcePoint" />
            <mxPoint x="4350" y="229" as="targetPoint" />
          </mxGeometry>
        </mxCell>
        <mxCell id="mN4S2yNRlESzcMTuaKe_-105" value="&lt;font style=&quot;font-size: 8px;&quot;&gt;Запрос на подтверждение оплаты&lt;/font&gt;" style="html=1;verticalAlign=bottom;endArrow=block;curved=0;rounded=0;" parent="1" edge="1">
          <mxGeometry x="-0.0004" width="80" relative="1" as="geometry">
            <mxPoint x="4360" y="290" as="sourcePoint" />
            <mxPoint x="4562.500000000001" y="290" as="targetPoint" />
            <mxPoint as="offset" />
          </mxGeometry>
        </mxCell>
        <mxCell id="mN4S2yNRlESzcMTuaKe_-106" value="&lt;font style=&quot;font-size: 8px;&quot;&gt;Запрос на изменение статуса платежа&lt;/font&gt;" style="html=1;verticalAlign=bottom;endArrow=block;curved=0;rounded=0;" parent="1" edge="1">
          <mxGeometry width="80" relative="1" as="geometry">
            <mxPoint x="4572.500000000001" y="309.5000000000001" as="sourcePoint" />
            <mxPoint x="4772.500000000001" y="309.5000000000001" as="targetPoint" />
            <mxPoint as="offset" />
          </mxGeometry>
        </mxCell>
        <mxCell id="mN4S2yNRlESzcMTuaKe_-107" value="&lt;font style=&quot;font-size: 8px;&quot;&gt;Ответ на запрос&lt;/font&gt;" style="html=1;verticalAlign=bottom;endArrow=open;dashed=1;endSize=8;curved=0;rounded=0;" parent="1" edge="1">
          <mxGeometry relative="1" as="geometry">
            <mxPoint x="4772.500000000001" y="329.5000000000001" as="sourcePoint" />
            <mxPoint x="4572.500000000001" y="329.5000000000001" as="targetPoint" />
            <mxPoint as="offset" />
          </mxGeometry>
        </mxCell>
        <mxCell id="mN4S2yNRlESzcMTuaKe_-108" value="&lt;font style=&quot;font-size: 8px;&quot;&gt;Ответ на запрос&lt;/font&gt;" style="html=1;verticalAlign=bottom;endArrow=open;dashed=1;endSize=8;curved=0;rounded=0;" parent="1" edge="1">
          <mxGeometry x="-0.0017" relative="1" as="geometry">
            <mxPoint x="4562.5" y="339.5" as="sourcePoint" />
            <mxPoint x="4360" y="339.5" as="targetPoint" />
            <mxPoint as="offset" />
          </mxGeometry>
        </mxCell>
        <mxCell id="mN4S2yNRlESzcMTuaKe_-109" value="&lt;font style=&quot;font-size: 8px;&quot;&gt;Отображение страницы события с&amp;nbsp;&lt;/font&gt;&lt;div&gt;&lt;font style=&quot;font-size: 8px;&quot;&gt;результатом платежа в модальном окне&lt;/font&gt;&lt;/div&gt;" style="html=1;verticalAlign=bottom;endArrow=open;dashed=1;endSize=8;curved=0;rounded=0;" parent="1" target="mN4S2yNRlESzcMTuaKe_-84" edge="1">
          <mxGeometry x="0.0003" relative="1" as="geometry">
            <mxPoint x="4350" y="360" as="sourcePoint" />
            <mxPoint x="4270" y="360" as="targetPoint" />
            <mxPoint as="offset" />
          </mxGeometry>
        </mxCell>
        <mxCell id="w4r3nTZgT-towj5L5SoX-78" value="&lt;font style=&quot;font-size: 8px;&quot;&gt;Запрос на добавление кода для почты&lt;/font&gt;" style="html=1;verticalAlign=bottom;endArrow=block;curved=0;rounded=0;" parent="1" edge="1">
          <mxGeometry width="80" relative="1" as="geometry">
            <mxPoint x="1851" y="350" as="sourcePoint" />
            <mxPoint x="2051" y="350" as="targetPoint" />
          </mxGeometry>
        </mxCell>
        <mxCell id="w4r3nTZgT-towj5L5SoX-120" value="&lt;span style=&quot;font-size: 8px;&quot;&gt;Запрос на изменение данных пользователя&lt;/span&gt;" style="html=1;verticalAlign=bottom;endArrow=block;curved=0;rounded=0;" parent="1" edge="1">
          <mxGeometry width="80" relative="1" as="geometry">
            <mxPoint x="1851" y="1110" as="sourcePoint" />
            <mxPoint x="2051" y="1110" as="targetPoint" />
          </mxGeometry>
        </mxCell>
        <mxCell id="w4r3nTZgT-towj5L5SoX-121" value="&lt;span style=&quot;font-size: 8px;&quot;&gt;Ответ на запрос&lt;/span&gt;" style="html=1;verticalAlign=bottom;endArrow=open;dashed=1;endSize=8;curved=0;rounded=0;entryX=0.9;entryY=0.5;entryDx=0;entryDy=0;entryPerimeter=0;" parent="1" edge="1">
          <mxGeometry relative="1" as="geometry">
            <mxPoint x="2051" y="1130" as="sourcePoint" />
            <mxPoint x="1850" y="1130" as="targetPoint" />
          </mxGeometry>
        </mxCell>
        <mxCell id="w4r3nTZgT-towj5L5SoX-125" value="&lt;span style=&quot;font-size: 8px;&quot;&gt;Ответ с сервера&lt;/span&gt;" style="html=1;verticalAlign=bottom;endArrow=open;dashed=1;endSize=8;curved=0;rounded=0;" parent="1" edge="1">
          <mxGeometry relative="1" as="geometry">
            <mxPoint x="1841" y="1140" as="sourcePoint" />
            <mxPoint x="1638.5" y="1140" as="targetPoint" />
          </mxGeometry>
        </mxCell>
        <mxCell id="MOr1BFVqXAcJ6y7MGOdV-24" value="&lt;font style=&quot;font-size: 8px;&quot;&gt;Отображение страницы профиля&lt;/font&gt;" style="html=1;verticalAlign=bottom;endArrow=open;dashed=1;endSize=8;curved=0;rounded=0;" parent="1" edge="1">
          <mxGeometry relative="1" as="geometry">
            <mxPoint x="470" y="551" as="sourcePoint" />
            <mxPoint x="265" y="551" as="targetPoint" />
            <mxPoint as="offset" />
          </mxGeometry>
        </mxCell>
        <mxCell id="MOr1BFVqXAcJ6y7MGOdV-1" value="" style="html=1;points=[[0,0,0,0,5],[0,1,0,0,-5],[1,0,0,0,5],[1,1,0,0,-5]];perimeter=orthogonalPerimeter;outlineConnect=0;targetShapes=umlLifeline;portConstraint=eastwest;newEdgeStyle={&quot;curved&quot;:0,&quot;rounded&quot;:0};" parent="1" vertex="1">
          <mxGeometry x="470" y="370" width="10" height="190" as="geometry" />
        </mxCell>
        <mxCell id="bMisEqN8dOupqjskCVtR-1" value="&lt;font style=&quot;font-size: 8px;&quot;&gt;Отображение страницы профиля&lt;/font&gt;" style="html=1;verticalAlign=bottom;endArrow=open;dashed=1;endSize=8;curved=0;rounded=0;" edge="1" parent="1">
          <mxGeometry relative="1" as="geometry">
            <mxPoint x="470" y="783" as="sourcePoint" />
            <mxPoint x="265" y="783" as="targetPoint" />
            <mxPoint as="offset" />
          </mxGeometry>
        </mxCell>
        <mxCell id="6lOcQkR09MxCbveaoaYN-5" value="" style="html=1;points=[[0,0,0,0,5],[0,1,0,0,-5],[1,0,0,0,5],[1,1,0,0,-5]];perimeter=orthogonalPerimeter;outlineConnect=0;targetShapes=umlLifeline;portConstraint=eastwest;newEdgeStyle={&quot;curved&quot;:0,&quot;rounded&quot;:0};" parent="1" vertex="1">
          <mxGeometry x="470" y="130" width="10" height="200" as="geometry" />
        </mxCell>
        <mxCell id="MOr1BFVqXAcJ6y7MGOdV-35" value="" style="html=1;points=[[0,0,0,0,5],[0,1,0,0,-5],[1,0,0,0,5],[1,1,0,0,-5]];perimeter=orthogonalPerimeter;outlineConnect=0;targetShapes=umlLifeline;portConstraint=eastwest;newEdgeStyle={&quot;curved&quot;:0,&quot;rounded&quot;:0};" parent="1" vertex="1">
          <mxGeometry x="470" y="600" width="10" height="193" as="geometry" />
        </mxCell>
        <mxCell id="KFshp6aJ-BWy2UAYk6_I-60" value="" style="html=1;points=[[0,0,0,0,5],[0,1,0,0,-5],[1,0,0,0,5],[1,1,0,0,-5]];perimeter=orthogonalPerimeter;outlineConnect=0;targetShapes=umlLifeline;portConstraint=eastwest;newEdgeStyle={&quot;curved&quot;:0,&quot;rounded&quot;:0};" parent="1" vertex="1">
          <mxGeometry x="470" y="820" width="10" height="330" as="geometry" />
        </mxCell>
        <mxCell id="w4r3nTZgT-towj5L5SoX-3" value="" style="html=1;points=[[0,0,0,0,5],[0,1,0,0,-5],[1,0,0,0,5],[1,1,0,0,-5]];perimeter=orthogonalPerimeter;outlineConnect=0;targetShapes=umlLifeline;portConstraint=eastwest;newEdgeStyle={&quot;curved&quot;:0,&quot;rounded&quot;:0};" parent="1" vertex="1">
          <mxGeometry x="470" y="1200" width="10" height="170" as="geometry" />
        </mxCell>
      </root>
    </mxGraphModel>
  </diagram>
</mxfile>
